<?xml version="1.0" encoding="UTF-8"?>
<svg version="1.1" viewBox="0 0 1600 900" width="736" height="414" xmlns="http://www.w3.org/2000/svg">
<path transform="translate(0)" d="m0 0h1600v900h-1600z" fill="#EDEDEC"/>
<path transform="translate(0)" d="m0 0h401l1 19 2 13 1 20-2 26-4 21-7 31-6 21-7 37-5 15-3 8-9 17-10 19-5 11-3 10v16l2 11 7 19 2 10 1 10v30l-3 16-8 25-3 9-4 11-5 12-4 4h-4l1 4h-3l-2-1 1 10-6 14-4 5-8 15-5 8-6 10-2 4v3h-4l-7 9-8 19-2 1h-5l-1 3 3 1-6 3-14 12-8 7-4 7v7l-12 7-6 11-4 4-7 8-8 6-5 6-5 9-7 6-18 9-11 2h-31l-21 1-5 2-10 2 2 3-4 1-10-2h-13l-5 2-5-2v2l1 4-2 2 10 5 18 6 11 3 7 7 5 2h13l8 1 6-2 11 4 3 3v2h2v2l6 2 13 9 1 2v6l-3 5v5l-5 6 6-1-2 6 6 1 3-2 9 1 4 3 1 4-1 3h-2v2h7l2-3 9-1 6 6 15 4 2 1v2l-3 2 7 3-1-4h6v-2l10-2-3-2 1-4h8l4-2 8 1 2 3h-5l-4-1v3l5 4 7 3 7 2 1 3 8 1 3 3 7 3 1 2 10 3 9 6 5 2 8 4 17 6h2l-3-5h13l4-3 8 1 5 1 5-3 14-3 5-3 6-3h7v3l14-2 6-3 7-1 2-1-1-2 8-3 36-1 13-3h14l19-3h17l7-3 6-4 14-2 6-1 9 6 7-1 10 4 5 4 7 3 5 3 9 2 6 3v3 4l4 1 2-8 4 1v2l9-1v2l5-2 5-4 14-8 11-4 15-4-5-11-1-6-7-1-9-7-5-5 1-8-10-10-7-8-5-4-4 1-8 6h-2l2-4 7-7-1-7-4-2-7-7-2-5-4-2-3-4v-2l-4-2-12-14-11-13v-3l-3-1-4-7 5-5 4 1 11 14 12 14 9 10 9 11 12 12 2 3 4-2 6-5 3 1-8 8 2 5 22 22 4 1 2-2 8 4h10l12-5 7-5 2-7 9-3 14-1 2-4h3l-1-3 7-1 2-10 3-5v-3h-2l3-10 4-16-6 2-4 2-9-8-2-1-1-6 1 8 4 6-6-3-2-9-2 1-1 11 1 6-3-3-2-5v-14l-2-4-5 7-1-2 4-6v-1l-2-1 5-6v-2l-3-1 1-7h1l1 5h4l2-11 5-12 2-1v5l6-7 8-4 3 1-9 5 3-1 10-4h10l-4 4 4-2h6l1 1 7-1-1 3-7 1v2h9l-1 5 4 2-2 3 6-2 5-3-5-1v-7l3-1v-2l-2-1 6-10 3-1h2l10-5 2 1-4 3-7 4-1 2h-2l-1 3-2-1v2h4l-2 5h2l15-15 2 1-3 5-3 3-1 3-4 4 5-5 12-14 5-2 2-4 3-1 1 2-1 2h2v2l4 1 6 5 6-1v2l-5 1-1 3h-2l-2 4-4 2v2l-2 1 1 2-4 3h-2v2l2-1h7l-3 2-1 3h-2v2l6-2h5l2-5 1 4-3 4 6-3-1 8 5-1 1 2-1 2 3-1 7-8 5-5h-2l-1-5 8-7v3l-3 3v7l-7 8-4 5-1 2h-2l-1 6h2l-1 3-6 1-3-4-3-2 6-4h-3l-7 1-1 1 3 2-3 7v3h6l4-2 10-2 8 1 2 4-4 2-17 1-18 4 2 1v2h2l5 5 7 5 9 3 13 5v1h-11l-5-2-11-5v2h2v3l4 2 12 3 9 4v1l-9 1 9 7 7 2 8 5 2 2 5 1v2h6l1 4 5 2 6 1 10 2-1 2-8 1-7-2-11-2-4-4-18-9-1-4-8-2-4-3-12-6 2 5h5v2h-2l3 6-4-2-2 1-1-4-2-1h2l-4-6-2-1-1 16-2 5 9 31-1 5-2 3 33-10h5l-1 7-4 2v2l-8 2 8 1 5 1h3l-1 5-12-1-8-2-8 1-9 3-4 4 4 1v5l-1 2 6 3 16-8h3v2l-3 3h-2l-1 4-2 4 7-4 3-7h10l9-2 8 1 3 1-1 3h-2v2l7-4 7-6 9 1 6 8 7 15 1 6-8 6-2 2-6 2-6 4-10-2-9-3-1-5h-2l-3 3h-5l13 10 4 3v2l5 1h3l6-2v-2l-3-1 3-2h2l1-3 2 1-2 4 6-2h4l1 2 6-1 5-5h2l-2 7h-2v2l6 1 2-1-2 4-3 3-16 5v5l-2 4h2l1 2h2l-1-9 4-3 12-1 2 2 4-2 1 3h3l1-6 1-2 3-1-8-3v-2h-3l1-4 1-1h5l5 3 2 2 15 3 5-5 7-3 7-4-2 5-2 3 7 2 6 2-1 4-5 4 4 3 1-4 4-1 1-4 3-3 8-4h10v-2l-5-1-1-5 5-2 2-2h6l-1-6 3-1 6 3v3l2-1-3-9-2-3 5-3h6l-3 8 5-3 3-5 5-1h9l9-2 5 2 5 1h11l6 3 12-1 5 4v2l6-2 1-3-1-4 4-2-1-5-5 1-2-2v-5l-8-3-3-3 2-4 4-1 5 5h4l1-6 5-2 1-3-4-9h-8l-1-2-23-1-1-2-5-3-4 1-2 3-4-1-2-3-7 1-2 5v3l-10-4-1-3h-7l4-4 7-2 1-3 7-2v-2l3-1 4-7 6-3 6-2 5 1 4 2 6 1 2-5h2l2-5 5-5 4-2-3-1-8 6-3 1-9-3-3-2-7-1-1-5 3-1v-2l5-3 9-1 2-4 9-4 7-2 11-2-1-4 1-2h4l2-4 4-3 5-1v-2h2l2-4 8-3 9-4 5-3 4-5 6-2 2-4 3-2 7 1v3l12-4 16 3-1-3-15-4-1-2h2v-2l10-1 6 7 6 1 1-3 10-4 4-3 2-4 4 1-1 6 1 2 5-1 6-5 5-2-2-3-4-1-5 2h-5l1-7 3-4 1-7 3-1-2-2v-3h-2l2-4 5-1 2 1 2 4 6-1 2-5 10-7 5-4 10-4 5-7 1-4 2-19 2-10 5-7 3-2 6-2 2-5 3-2 9 1 10-4 3-7 7-2h7l3-2v-13l-3-1-5 1-1-4 4-3 7 1 5 2 6-1 3-6 4-1 8-1 11-10 3-12 2-4 3-3h12l4-2 3-5 1-12-6-2h-6l-6-5-1-4 10-10 3-5-1-4h-16l-10 3-9 3-7-3-8 1-16 4h-9l1-5 9-12 1-5-9-8-1-3v-21l-1-2v-10l-1-10 3-15 3-9v-9l-7-8-7-10-4-7-2-8-8-10-12-13-7-11-3-3-6-8-5-11-8-20-7-10-10-7-12-6-9-7-7-8-7-17-5-21-2-16 1-17-1-35-1-16h351v900h-1600z" fill="#5F6061"/>
<path transform="translate(0)" d="m0 0h401l1 19 2 13 1 20-2 26-4 21-7 31-6 21-7 37-5 15-3 8-9 17-10 19-5 11-3 10v16l2 11 7 19 2 10 1 10v30l-3 16-8 25-3 9-4 11-5 12-4 4h-4l1 4h-3l-2-1 1 10-6 14-4 5-8 15-5 8-6 10-2 4v3h-4l-7 9-8 19-2 1h-5l-1 3 3 1-6 3-14 12-8 7-4 7v7l-12 7-6 11-4 4-7 8-8 6-5 6-5 9-7 6-18 9-11 2h-31l-21 1-5 2-10 2 2 3-4 1-10-2h-13l-5 2-5-2v2l1 4-2 2 10 5 18 6 11 3 7 7 5 2h13l8 1 6-2 11 4 3 3v2h2v2l6 2 13 9 1 2v6l-3 5v5l-5 6 6-1-2 6 6 1 3-2 9 1 4 3 1 4-1 3h-2v2h7l2-3 9-1 6 6 15 4 2 1v2l-3 2 7 3-1-4h6v-2l10-2-3-2 1-4h8l4-2 8 1 2 3h-5l-4-1v3l5 4 7 3 7 2 1 3 8 1 3 3 7 3 1 2 10 3 9 6 5 2 8 4 17 6h2l-3-5h13l4-3 8 1 5 1 5-3 14-3 5-3 6-3h7v3l14-2 6-3 7-1 2-1-1-2 8-3 36-1 13-3h14l19-3h17l7-3 6-4 14-2 6-1 9 6 7-1 10 4 5 4 7 3 5 3 9 2 6 3v3 4l4 1 2-8 4 1v2l9-1v2l2 1-3 1-1 5-3 2-15-3-1 8-2 4-9-3-5-3h-14l2 4v3l4 2 4 6v3l-5 1v2h-9l-3-3 5-1-3-3-4-1 1 5-8 2-3 2-3 6-10-1-3-3v-4l-9-3-5-3-11-2h-4l1 3 4 4-1 2-5 1h-7l-3-2-8-1-5-4-4-1 1 3h-5l-1-5h-7v2l-7-1-10-4v-3l-11-2-6-3v2l-5 1-8-3h-4l10 5 20 9 13 7v3l-4-2-13-6-14-6-7-2-7 2-6-2-15-6v5l2 2 19 5v1h-6l-2 5 10 6-3 1-10-5 1 3-2 2h-3v2h2l1 3h-4v-3l-10 1-10-2-1 2-5-2-4-2-18-2-13-4-18-10-10-5-23-8-8 1-6-2-2-2v-3l2-2-7-4h-6l-6 2h-10l-4 2h-8l4 9 2 13 5 4 6 4v2l-8 1-6-2h-7l-13 2-2 9 2 2 7 2 2 4-10-1-17-4h-7l-5 3h-2l-1 3-6 3h-11l-7 1-16-1-7-2-12-2h-10l1 2 5 3 5 6-5-1-7-3-9-2-5-3-1-2h-11l-6-2 1-4 1-1v-9l-8-1-10-2-9-3-4-1 1 3-5 1h-3l-1 3-8-1-20-10-4-1h-8l-3 2-17-1-9 1z" fill="#aaa"/>
<path transform="translate(1249)" d="m0 0h351v627l-15 3-6 2v2l-13 8-3 7-3 5-2 3-9 2-13 8-7 4-5 6-1 11-4 5-7 2-13 5-9 3-10 3-5 1h-7l-5-1-14 7h-9l-2-1 1-7h-5l-4 7-9 3-7 2h-8l-9-4 1-4 4-4 15-1 3-2v-8l3-4v-5l-1-1h-5l-6 3-12 4-9 1-7 1-9-1-6 3h-6l-1 5-5 4h-2v9l13 1h4l1-3h18v2h2l-1 5-20 4h-2v2l-10 4-3 3h-7l-13-3-11-3-9-5-1-4h-2l-3-4h-4v-3h-2v-4l-5-1-4-3v-4l-5-1v-2l-6-2-19-2-8 1-3-4v-2l-14-1-5 2-8-4-4-4-17-2-25 2-16 5-5 1-2 4-2 2-14 3-1 5-4 3-5 1-2 6 3 3v2l21 1 5 1h9v2l11-1 9 3 11 3 2 4-4 2-9-1-4-3h-10l-4-1h-9l-1 2v6l1 3h2l1 4 3 1 2 5v5l-6 4v4l4 2 1 4-7 5-6-2-7-1-1-7 4-2-1-5-5 1-2-2v-5l-8-3-3-3 2-4 4-1 5 5h4l1-6 5-2 1-3-4-9h-8l-1-2-23-1-1-2-5-3-4 1-2 3-4-1-2-3-7 1-2 5v3l-10-4-1-3h-7l4-4 7-2 1-3 7-2v-2l3-1 4-7 6-3 6-2 5 1 4 2 6 1 2-5h2l2-5 5-5 4-2-3-1-8 6-3 1-9-3-3-2-7-1-1-5 3-1v-2l5-3 9-1 2-4 9-4 7-2 11-2-1-4 1-2h4l2-4 4-3 5-1v-2h2l2-4 8-3 9-4 5-3 4-5 6-2 2-4 3-2 7 1v3l12-4 16 3-1-3-15-4-1-2h2v-2l10-1 6 7 6 1 1-3 10-4 4-3 2-4 4 1-1 6 1 2 5-1 6-5 5-2-2-3-4-1-5 2h-5l1-7 3-4 1-7 3-1-2-2v-3h-2l2-4 5-1 2 1 2 4 6-1 2-5 10-7 5-4 10-4 5-7 1-4 2-19 2-10 5-7 3-2 6-2 2-5 3-2 9 1 10-4 3-7 7-2h7l3-2v-13l-3-1-5 1-1-4 4-3 7 1 5 2 6-1 3-6 4-1 8-1 11-10 3-12 2-4 3-3h12l4-2 3-5 1-12-6-2h-6l-6-5-1-4 10-10 3-5-1-4h-16l-10 3-9 3-7-3-8 1-16 4h-9l1-5 9-12 1-5-9-8-1-3v-21l-1-2v-10l-1-10 3-15 3-9v-9l-7-8-7-10-4-7-2-8-8-10-12-13-7-11-3-3-6-8-5-11-8-20-7-10-10-7-12-6-9-7-7-8-7-17-5-21-2-16 1-17-1-35z" fill="#ABABAB"/>
<path transform="translate(0)" d="m0 0h246l-1 15-2 5-2 11-4 14-3 13-3 7-4 11-10 22h-2l-2 6-6 10-6 9-4 3-4 1h-12l-7 2 1 11h2l5 13-1 5-4 2v2h-2l-4 8-1 9 2 11 2 22-1 11-3 11-9 20-6 7-3 1h-9l-4 4 3 7 2 2 1 10-1 18-4 15-3 9-6 10-5 13-4 10-8 21-5 10-4 10-6 12-3 1-2 4-5 6h-2l-2 5-10 9-5 4-14 20-8 11-2 5h-2l-2 5-5 9-5 15v2h-2l-1 6-5 8-6 7-4 6-4 2-1 3h-2l-2 4-3 1v2h-2z" fill="#5F6061"/>
<path transform="translate(360)" d="m0 0h41l1 19 2 13 1 20-2 26-4 21-7 31-6 21-7 37-5 15-3 8-9 17-10 19-5 11-3 10v16l2 11 7 19 2 10 1 10v30l-3 16-8 25-3 9-4 11-5 12-4 4h-4l1 4h-3l-2-1 1 10-6 14-4 5-8 15-5 8-6 10-2 4v3h-4l-7 9-8 19-2 1h-5l-1 3 3 1-6 3-14 12-8 7-4 7v7l-12 7-6 11-4 4-7 8-8 6-5 6-5 9-7 6-18 9-11 2h-31l-21 1-5 2-10 2 2 3-4 1-10-2h-13l-5 2-5-2v2l1 4-2 2 10 5 18 6 11 3 7 7 5 2h13l8 1 6-2 11 4 3 3v2h2v2l6 2 13 9 1 2v6l-3 5v5l-5 6 6-1-2 6 6 1 3-2 9 1 4 3 1 4-1 3h-2v2h7l2-3 9-1 6 6 15 4 2 1v2l-3 2 7 3-1-4h6v-2l10-2-3-2 1-4h8l4-2 8 1 2 3h-5l-4-1v3l5 4 7 3 7 2 1 3 8 1 3 3 7 3 1 2 10 3 9 6 5 2 8 4 17 6h2l-3-5h13l4-3 8 1 5 1 5-3 14-3 5-3 6-3h7v3l14-2 6-3 7-1 2-1-1-2 8-3 36-1 13-3h14l19-3h17l7-3 6-4 14-2 6-1 9 6 7-1 10 4 5 4 7 3 5 3 9 2 6 3v3 4l4 1 2-8 4 1v2l9-1v2l2 1-3 1-1 5-3 2-15-3-1 8-2 4-9-3-5-3h-14l2 4v3l4 2 4 6v3l-5 1v2h-9l-3-3 5-1-3-3-4-1 1 5-8 2-3 2-3 6-10-1-3-3v-4l-9-3-5-3-11-2h-4l1 3 4 4-1 2-5 1h-7l-3-2-8-1-5-4-4-1 1 3h-5l-1-5h-7v2l-7-1-10-4v-3l-11-2-6-3v2l-5 1-8-3h-4l10 5 20 9 13 7v3l-4-2-13-6-14-6-7-2-7 2-6-2-15-6v5l2 2 19 5v1h-6l-2 5 10 6-3 1-10-5 1 3-2 2h-3v2h2l1 3h-4v-3l-10 1-10-2-1 2-5-2-4-2-18-2-13-4-18-10-10-5-23-8-8 1-6-2-2-2v-3l2-2-7-4h-6l-6 2h-10l-4 2h-8l4 9 2 13 5 4 6 4v2l-8 1-6-2h-7l-13 2-2 9 2 2 7 2 2 4-10-1-17-4h-7l-5 3h-2l-1 3-6 3h-11l-7 1-16-1-7-2-12-2h-10l1 2 5 3 5 6-5-1-7-3-9-2-5-3-1-2h-11l-6-2 1-4 1-1v-9l-8-1-10-2-9-3-4-1 1 3-5 1h-3l-1 3-8-1-20-10-4-1h-8l-3 2-17-1-9 1v-148l11 1 2-4 5-2 20-3 2-1h33l15-2 11-3 27-2 13-2 13-1 4-2 5-6 1-9 8-12 3-19 6-7 4-1-3-1 1-9 5-8 7-8 5-4h2l2-4 14-14 9-13 6-9 7-11 4-9 6-16 4-9 4-4h2l2-4 13-19 6-8 10-20 4-13 9-32v-26l-2-21-3-15-3-13-4-16v-11l1-11 5-12 5-5h2v-2l6-5 14-27 7-14 12-26 6-18 6-36 4-26 2-16 1-21-2-38v-8z" fill="#ABABAB"/>
<path transform="translate(1403)" d="m0 0h197v418h-12l-13-4-2-2-1-14-1-1-9-1-5-5 4-6h2l-1-6-3-2 1-4 11-10v-5l-2-1h-11l-15 3-9-1-4-5-4-6-2-1v-6l5-12-1-3-23-4-4-2-4-9-4-6-3-11-1-22-2-23-5-25-2-23-3-16-3-10-4-10-2-13-2-20-4-10-3-2v-2l-4-2-12-12-14-30-5-10-6-17-7-13-5-15-3-11z" fill="#5F6061"/>
<path transform="translate(849,563)" d="m0 0 2 2-1 2h2v2l4 1 6 5 6-1v2l-5 1-1 3h-2l-2 4-4 2v2l-2 1 1 2-4 3h-2v2l2-1h7l-3 2-1 3h-2v2l6-2h5l2-5 1 4-3 4 6-3-1 8 5-1 1 2-1 2 3-1 7-8 5-5h-2l-1-5 8-7v3l-3 3v7l-7 8-4 5-1 2h-2l-1 6h2l-1 3-6 1-3-4-3-2 6-4h-3l-7 1-1 1 3 2-3 7v3h6l4-2 10-2 8 1 2 4-4 2-17 1-18 4 2 1v2h2l5 5 7 5 9 3 13 5v1h-11l-5-2-11-5v2h2v3l4 2 12 3 9 4v1l-9 1 9 7 7 2 8 5 2 2 5 1v2h6l1 4 5 2 6 1 10 2-1 2-8 1-7-2-11-2-4-4-18-9-1-4-8-2-4-3-12-6 2 5h5v2h-2l3 6-4-2-2 1-1-4-2-1h2l-4-6-2-1-1 16-2 5 9 31-1 5-2 3 33-10h5l-1 7-4 2v2l-8 2 8 1 5 1h3l-1 5-12-1-8-2-8 1-9 3-4 4 4 1v5l-1 2 6 3 16-8h3v2l-3 3h-2l-1 4-2 4 7-4 3-7h10l9-2 8 1 3 1-1 3h-2v2l7-4 7-6 9 1 6 8 7 15 1 6-8 6-2 2-6 2-6 4-10-2-9-3-1-5h-2l-3 3h-5l13 10 4 3v2l5 1h3l6-2v-2l-3-1 3-2h2l1-3 2 1-2 4 6-2h4l1 2 6-1 5-5h2l-2 7h-2v2l6 1 2-1-2 4-3 3-16 5v5l-3 1v4h2v2l-6 3-10 6-8 6-3 3-4 2h-16l4-5h-2v-5l-2-5 7-5h2l2-7-7 2-14 8h-2l-2 5-8 6-7 3-4 4-4-6-4-13-5-13-2-10h-16l-6-4v-6l-4 2-9 2-4 4h-2l-2 4-2 1h-7v-2l-6-2-1 7h-3v6l6-2 9 10v3l5 1 10 7-2 2-13 5-4 2h-3l-1-3-7-2h-10l-4 2-5-2h-10l-2-4-3-1-2 5h-2v-7l-1-4-1 1v9l1 4-6-2-10 1-12 1-7-2v2l-11-2-3-2-2-3-4 2-3-6-3-3-2-4 1-5 5-5 2-5 4-1-1-5-1-4h-7l-2 4-4 4-3 1-10-4h-7l-2-3h-4l1-7 2-8 13-8 11-5 19-5-5-11-1-6-7-1-9-7-5-5 1-8-10-10-7-8-5-4-4 1-8 6h-2l2-4 7-7-1-7-4-2-7-7-2-5-4-2-3-4v-2l-4-2-12-14-11-13v-3l-3-1-4-7 5-5 4 1 11 14 12 14 9 10 9 11 12 12 2 3 4-2 6-5 3 1-8 8 2 5 22 22 4 1 2-2 8 4h10l12-5 7-5 2-7 9-3 14-1 2-4h3l-1-3 7-1 2-10 3-5v-3h-2l3-10 4-16-6 2-4 2-9-8-2-1-1-6 1 8 4 6-6-3-2-9-2 1-1 11 1 6-3-3-2-5v-14l-2-4-5 7-1-2 4-6v-1l-2-1 5-6v-2l-3-1 1-7h1l1 5h4l2-11 5-12 2-1v5l6-7 8-4 3 1-9 5 3-1 10-4h10l-4 4 4-2h6l1 1 7-1-1 3-7 1v2h9l-1 5 4 2-2 3 6-2 5-3-5-1v-7l3-1v-2l-2-1 6-10 3-1h2l10-5 2 1-4 3-7 4-1 2h-2l-1 3-2-1v2h4l-2 5h2l15-15 2 1-3 5-3 3-1 3-4 4 5-5 12-14 5-2 2-4z" fill="#0D0D0C"/>
<path transform="translate(246)" d="m0 0h38l-2 12-7 24-3 21-3 20-3 13-3 9-4 9-6 10-7 12-7 14-3 9-10 15-6 13-1 6v16l-2 20v18l-2 15-3 6-5 2h-3l3 5-5 10-4 13-5 10-6 22-4 13-3 8-2 9-4 15-3 11-4 10-2 9-3 3-4 12h-2l-2 4-12 22-8 11-4 7-7 11-3 7-4 5-6 12-4 5-3 7h-2l-1 7-4 5-8 16-10 15-8 15-6 10-8 17h-2l-1 4h-2l-1 5-7 9-14 9-9 4-4 2-6 8h-10v-83h2v-2l7-6 5-5 6-9h2l7-14 4-11 4-10 7-13h2l2-6 8-11 8-12 7-9 8-7 6-5 2-4 5-5 4-5 3-2 5-11 6-14 6-13 7-20 4-9 5-12 4-6 3-9 4-15 1-18-1-10-4-5-1-5 5-4h10l5-4 8-16 4-9 3-14-1-21-2-13-1-6 1-8 5-8h2v-2l4-3-1-8-3-6v-3h-2l-2-6v-5l3-2 10-1h7l7-3 7-10 8-15h2l1-4 8-18 8-22 5-21 2-5 2-10 1-3 1-13z" fill="#939494"/>
<path transform="translate(360)" d="m0 0h41l1 19 2 13 1 20-2 26-4 21-7 31-6 21-7 37-5 15-3 8-9 17-10 19-5 11-3 10v16l2 11 7 19 2 10 1 10v30l-3 16-8 25-3 9-4 11-5 12-4 4h-4l1 4h-3l-2-1 1 10-6 14-4 5-8 15-5 8-6 10-2 4v3h-4l-7 9-8 19-2 1h-5l-1 3 3 1-6 3-14 12-8 7-4 7v7l-12 7-6 11-4 4-7 8-8 6-5 6-5 9-7 6-18 9-11 2h-31l-21 1-5 2-10 2 2 3-4 1-10-2h-13l-5 2-5-2v2l1 4-2 2 10 5 18 6 11 3 5 5 2 3h-8l-18-5-22-10-18-5-13-3h-12l-4-1v-5l11 1 2-4 5-2 20-3 2-1h33l15-2 11-3 27-2 13-2 13-1 4-2 5-6 1-9 8-12 3-19 6-7 4-1-3-1 1-9 5-8 7-8 5-4h2l2-4 14-14 9-13 6-9 7-11 4-9 6-16 4-9 4-4h2l2-4 13-19 6-8 10-20 4-13 9-32v-26l-2-21-3-15-3-13-4-16v-11l1-11 5-12 5-5h2v-2l6-5 14-27 7-14 12-26 6-18 6-36 4-26 2-16 1-21-2-38v-8z" fill="#BFBFBF"/>
<path transform="translate(1249)" d="m0 0h31l2 26 2 17 5 25 9 24 4 6 4 5 8 6v2l5 2 4 3v2l4 2 3 3 4 7 7 10 8 10 7 11 8 7v2h2l7 9 4 6 7 8 1 2v17l5 5 6 4 2 4 2 12 7 15 1 3v22l-1 19 2 23 3 16-1 9-5 15 1 3h46l7 3 1 5-3 5-8 8-2 7 31 2 4 1h10l9-1 4 2 1 3-4 6-12 7-5 4-10 5-3 4-9 2h-8l-6 3-8 3v6l1 4-3 6v10l-4 2h-15l-6 3-3 10-2 3-5 2-7-1-1-5v-7l-5 2-2 9-4 3-7 2-4 6-10 8-15 3-9 8h-2l-2 5-3 6v9l2 4-1 8-4 2-2 6-5 5-8 5-5 3-6 6-4 13-4 3-3 1-1 3 2 2h9l8 3 8-1 21-4 5 2 6 7 11 4v3l-5 2-7 2-10 5-21 5-13 3-3 5v7l5 5 1 4-6 10 8 1 10 1 16-4h8l6-2h5l2 2v3l-5 2-15 3-4 2h-6l-3-1h-13l-4 2-12 2h-5l-4-2v5l-13 3-18-2-7 6 1 5-9-1-9-2-3-2-7 1-5 2h-12l-9-2-1-3-15 2-1 2h3v2h-11v-2l-4-2 3-3 10-2 5-2 9 2 8 5h10l-1-12 6-3 12 2 2-5 5-2 9-1 4-3 5 1 1 1 19 1 3 1 5-2 2-5 3-5-3-7-2-6-5-3-6 1-4 4-3 1h-7l-7-1-2-8-3-4-12-2-7-1-10 3-2 4-4-1v-2h-2v-2l6-3 1 1 12-4 16 3-1-3-15-4-1-2h2v-2l10-1 6 7 6 1 1-3 10-4 4-3 2-4 4 1-1 6 1 2 5-1 6-5 5-2-2-3-4-1-5 2h-5l1-7 3-4 1-7 3-1-2-2v-3h-2l2-4 5-1 2 1 2 4 6-1 2-5 10-7 5-4 10-4 5-7 1-4 2-19 2-10 5-7 3-2 6-2 2-5 3-2 9 1 10-4 3-7 7-2h7l3-2v-13l-3-1-5 1-1-4 4-3 7 1 5 2 6-1 3-6 4-1 8-1 11-10 3-12 2-4 3-3h12l4-2 3-5 1-12-6-2h-6l-6-5-1-4 10-10 3-5-1-4h-16l-10 3-9 3-7-3-8 1-16 4h-9l1-5 9-12 1-5-9-8-1-3v-21l-1-2v-10l-1-10 3-15 3-9v-9l-7-8-7-10-4-7-2-8-8-10-12-13-7-11-3-3-6-8-5-11-8-20-7-10-10-7-12-6-9-7-7-8-7-17-5-21-2-16 1-17-1-35z" fill="#C0C0C0"/>
<path transform="translate(1366)" d="m0 0h37l2 11 5 16 4 11 7 14 7 19 8 16 8 17 12 12 3 2v2l4 2 4 10 2 21 3 16 3 7 5 17 2 16 1 17 5 23 2 23 1 22 4 13 5 7 1 6 19 4 8 1 2 4-5 12-1 6 4 2 6 9 9 1 15-3h11l3 2v5l-8 8-4 3v3l4 4-1 4-4 4-1 3 4 3 9 1 2 2 1 14 6 3 11 2 9 1v10l-9-3-27-1-7 3h-6l-4-2-2-5 4-5 2-1 1-5-14-7-3-3 1-4 5-4 1-7-1-1 1-11-1-1h-8l-19 3-11 1h-16l-2-2 1-6 2-3h2l2-4 5-5 2-7-1-2-15-2-12-4v-2h-2l-2-4-1-20-2-13-1-31v-21l-4-8-1-17-7-14-4-18-3-7-6-12-1-23v-20l-2-2-1-2 1-5-5 5-1-3-4-2-11-6-7-6-9-13-9-11-6-11-4-10-7-15-4-12-2-11-1-22z" fill="#939494"/>
<path transform="translate(1266,500)" d="m0 0 5 1v2h2l1 6h-2l-2 4-1 8-9 10-7 10-6 15h-3l-1-2-5 1h-24l-3-2-2-5-6 2-3 6-1 9-3 1-2 4-10 7-5 6h-5v-2l-6 1-5 4-4 6-3 4-4 10-9 9h-2v-2l-1 1-7 5 6-1v10l-26 13h-9l-2-2 6-8 8-12-1-3 4-1 1-5-8 5-10 9-3 6h2l-1 5-2 5-15 3-3 4-6 1-6-1-1 2-10-2-5-5-8 1 1-5 5-4v-5l2-1 3 1-1-5 1-7h2l-1-2-11-1-5-2-9-1-10 3-14-1 3-5 7-6h11l4-3 1-3h2l-1-4 5-5 5-2 3-2 4 1 3-1 1-4 5-6 7-5 13-3h10l5 1 18-1 8-3 3-10 12-11 7-5 7-2 5-4 4-2 4-5 12-3 1-5 5-4h2v-2l13-6h23l17 2h16l4 1 5-1z" fill="#ABABAB"/>
<path transform="translate(867,541)" d="m0 0 2 1-1 2h12l2 2h-8l-10 3-6 5-3 4 5-2 12-5 8-1 5 2h3l-4-5 4 2 4 5 10 7 3 3 10 3 1 1-1 7-5 1 2 4 11 5 11 2 5 8 2 4-7 3v4h2l1 2 9 2 7-3 12-7 1-2 7-3 6-3h6l2 4v13l-3 5-1 4-12 6-6 1 5-5-12 7-4 4-16 8-10 2 1 2 10-1 23-2 6-1-1 6 1 3 6-2 1 2h2l2-5 2-3v-4h2v4l13-2 14 1v4l-9 5v3l-2 1v3l2-1h8l2 2 1-4 2 1-1 4 5-1 3 1-2 6-5 2-1 5h-2l-1 3-6 2 3-5 6-2v-2l-21 9-8 6-3 5-6 4 6 1-3 1v2h-2l1 2 6-1-4 3-7 4-1 2-6 2-22-1 4-2 10-3-13 1 3-2 15-4 10-5 2-2-12 1-9 2-4-1 3-3-3-1 4-3-6-1 4-3-1-2-4 1h-9l-4-2h2l-1-2-8-3-5-2-6 1h-18v-1l12-2-9-3-7 1-3 2 4 2h-6l-3-2-4-1 3-2-10-4-9-2-4-3v-3h-2v-2l10 3 2 2 4 1h9l-11-4-9-3-11-8-1-3h-2v-2l-3-1v-1l19-4 17-1 3-2-1-3h-8l-12 3-2 1h-6l-2-3 3-5 1-3-4-2 3-2 7-1 4-1-2 4-4 2 5 5 6-1 1-2h-2l1-6h2l2-5 8-8 1-6 1-4 2-3-6 5v5h2l-2 4-8 7-3 4-2-1v-3l-6 1v-5-2l-4 1 2-6-2 3-11 2v-2h2l1-4h-6v-2l4-4 1-2h2v-2l5-4 4-5 5-1v-2l-6 2-7-6-3-1v-2h-2l-1-3-7 6-5 5h-2l-2 5-8 9-4 1 4-5h2l1-4 4-4v-3l-14 14h-4l2-4-4-1 1-2h2l1-2h2l2-4 9-5-10 4-3 2-3-1-2 6-3 4 1 3-2 1-1 7h6l-4 4-3 2h-5l1-3-4-2 1-4-8-1v-2l7-2 1-2-8 2v-2l-7 2-4 1 3-4-5-1 1-2 16-6h2l2-4 5-6 1 2-6 8-1 2h-2v2l-6 4 4-1 4-2 1-4 5-3 3-6 5-5 9-4 30-1 5-5z" fill="#C0C0C0"/>
<path transform="translate(570,752)" d="m0 0 5 2 6 4 7-1 10 4 5 4 7 3 5 3 9 2 6 3v3 4l4 1 2-8 4 1v2l9-1v2l2 1-3 1-1 5-3 2-15-3-1 8-2 4-9-3-5-3h-14l2 4v3l4 2 4 6v3l-5 1v2h-9l-3-3 5-1-3-3-4-1 1 5-8 2-3 2-3 6-10-1-3-3v-4l-9-3-5-3-11-2h-4l1 3 4 4-1 2-5 1h-7l-3-2-8-1-5-4-4-1 1 3h-5l-1-5h-7v2l-7-1-10-4v-3l-11-2-6-3v2l-5 1-8-3h-4l10 5 20 9 13 7v3l-4-2-13-6-14-6-7-2-7 2-6-2-15-6v5l2 2 19 5v1h-6l-2 5 10 6-3 1-10-5 1 3-2 2h-3v2h2l1 3h-4v-3l-10 1-10-2-1 2-5-2-4-2-18-2-13-4-18-10-7-4 3-1 10 1 19 2 14 3v-3l-9-1-12-3v-3h17l6-4 5-6v-4l5-2h7v3l14-2 6-3 7-1 2-1-1-2 8-3 36-1 13-3h14l19-3h17l7-3 6-4 14-2z" fill="#aaa"/>
<path transform="translate(849,563)" d="m0 0 2 2-1 2h2v2l4 1 6 5 6-1v2l-5 1-1 3h-2l-2 4-4 2v2l-2 1 1 2-4 3h-2v2l2-1h7l-3 2-1 3h-2v2l6-2h5l2-5 1 4-3 4 6-3-1 8 5-1 1 2-1 2 3-1 7-8 5-5h-2l-1-5 8-7v3l-3 3v7l-7 8-4 5-1 2h-2l-1 6h2l-1 3-6 1-3-4-3-2 6-4h-3l-7 1-1 1 3 2-3 7v3h6l4-2 10-2 8 1 2 4-4 2-17 1-18 4 2 1v2h2l5 5 7 5 9 3 13 5v1h-11l-5-2-11-5v2h2v3l4 2 12 3 9 4v1l-9 1 9 7 7 2 8 5 2 2 5 1v2h6l1 4 5 2 6 1 10 2-1 2-8 1-7-2-11-2-4-4-18-9-1-4-8-2-4-3-12-6 2 5h5v2h-2l3 6-4-2-2 1-1-4-2-1h2l-4-6-2-1-1 16-2 5 9 31-1 5-3 3-3-5v-2l-4-1v2l-6 2-5 5-2-1-2-5-4 2v2h-5l1-11-1-11 3-19h1l1 9 3-8v-17l-3-9-7-8h3v-3l-7-1-2-4-5-4-5-1-3 1 6 2-2 2-6-1-1 2h-2l2-5h-4l-6 5-7 16v1l7-11 1 4-2 4h-2v3h-2l-3 9-4 8-3 1 2-7-3-1-2-5-1-10h-2v8l-2 1-1-9 2-5 1-6-6 2-4 2-9-8-2-1-1-6 1 8 4 6-6-3-2-9-2 1-1 11 1 6-3-3-2-5v-14l-2-4-5 7-1-2 4-6v-1l-2-1 5-6v-2l-3-1 1-7h1l1 5h4l2-11 5-12 2-1v5l6-7 8-4 3 1-9 5 3-1 10-4h10l-4 4 4-2h6l1 1 7-1-1 3-7 1v2h9l-1 5 4 2-2 3 6-2 5-3-5-1v-7l3-1v-2l-2-1 6-10 3-1h2l10-5 2 1-4 3-7 4-1 2h-2l-1 3-2-1v2h4l-2 5h2l15-15 2 1-3 5-3 3-1 3-4 4 5-5 12-14 5-2 2-4z" fill="#0F0F0E"/>
<path transform="translate(1209,607)" d="m0 0 7 1v2l-4 3h-3v2h2l1 2h3v-3l13-4 9 2 9 1 5 7v6l5-1 2 1h7l6-2 1-3 6-1 6 4 3 10 2 4-6 9-5 3-5-1-17-1-3-2-5 1-2 2-12 2-3 3-1 2-12-1-6 2 1 4v8l-10 1-8-5-9-2-9 3-7 2v2l2 1v2h11v-2h-3l1-3 5-1h10l3 3 7 1v1l-11 3-20 2-9 1-7 5-3 7-14 3-1 5-4 3-5 1-2 6 3 3v2l21 1 5 1h9v2l11-1 9 3 11 3 2 4-4 2-9-1-4-3h-10l-4-1h-9l-1 2v6l1 3h2l1 4 3 1 2 5v5l-6 4v4l4 2 1 4-7 5-6-2-7-1-1-7 4-2-1-5-5 1-2-2v-5l-8-3-3-3 2-4 4-1 5 5h4l1-6 5-2 1-3-4-9h-8l-1-2-23-1-1-2-5-3-4 1-2 3-4-1-2-3-7 1-2 5v3l-10-4-1-3h-7l4-4 7-2 1-3 7-2v-2l3-1 4-7 6-3 6-2 5 1 4 2 6 1 2-5h2l2-5 5-5 4-2-3-1-8 6-3 1-9-3-3-2-7-1-1-5 3-1v-2l5-3 9-1 2-4 9-4 7-2 11-2-1-4 1-2h4l2-4 4-3 5-1v-2h2l2-4 8-3 9-4 5-3 4-5 6-2 2-4z" fill="#ABABAB"/>
<path transform="translate(1599,580)" d="m0 0h1v34l-8 3-9 7-9 1-13 8-6 1-6 11-1 5 1 4-1 1h-7l-4 3v6l-2 2-9 3-3 6-6 5v5h2l1 4-2 2-8-1-4 3-7 3-4 3h-12l-5 5h-6l-5-6v-3l2-1-1-4-12-1-4 4h-19v-8l-1-1v-6l2-1-1-6 4-3h10l7-1 2-4 5-8 9-7h2v-2h2v-6l5-4 6 1 2 2 7-1 3-2 1-5-2-3 1-7 3-3 5-3 9-8 4-1 4 1 2-6 2-5 1-3 5-2 4-6 7-1 3 3 2 1h17l7-2h10l2-2h11z" fill="#ABABAB"/>
<path transform="translate(13,691)" d="m0 0 9 2 7 4 13-1 6 3 2 5-2 2 6 4 5 1h14l4 2 1 2 7 2 3 4 1 5-4 5v5l-2 2h11l4 2 2-4 3-1 4 5 4 2 1 4 9 5 9-1 10-2 4-1h7l1 4-2 3-16 3-2 1-17 1-11-2 3 5-4 3 7 4 4 6 5 5v2l4 2 10 7 14 7 11 5v1l-9-1-11-4-10-6-13-3-16-1-3 3-9-1-16-4-15-5-8-1-3 3-12-1-18-8-15-4v-77l6 1 3-3z" fill="#EDEDEC"/>
<path transform="translate(0,771)" d="m0 0 12 2 15 6 6 3 12 2 1-3 5-1 18 5 9 3 13 3h5l3-3 16 1 13 3 7 4 5 3 12 4h4l-20-9-13-9-11-11v-2l10 3 12 2 7 3v3l6-1 1-2h2l2 6 8 1 13 1h12l13 3 9 7 6 2 3 5-1 3-10-1 7 5v2l-10 3h-8l4 4 4 2h7l7 2v2l-5 3h-2l-1 3-6 3h-11l-7 1-16-1-7-2-12-2h-10l1 2 5 3 5 6-5-1-7-3-9-2-5-3-1-2h-11l-6-2 1-4 1-1v-9l-8-1-10-2-9-3-4-1 1 3-5 1h-3l-1 3-8-1-20-10-4-1h-8l-3 2-17-1-9 1z" fill="#939494"/>
<path transform="translate(803,636)" d="m0 0 2 3-3 4h2l1-3 7 1-6-2 1-2 5-1 5 2 6 5v2l4 1 4 4-1 2-2-1 7 8 2 8v17l-4 9-2-1-2 10 1 15-4 13-5 5-2 3-5-1-7-9-12-12-8-6-9-4-7-2 7 8 4 11 1 13v6l1-2v-11l-3-13-5-9 9 3 9 6 7 10 10 17-1 5-6 11-10 8-2-4-6 11-6 6h-2l-9-31-6-21-4-8-6-4-3-1-1-4-10-7-8-2-3-1 2-2 8-2 14-1 2-4h3l-1-3 7-1 2-10 3-5v-3h-2l3-10h2l1 3 1-8h2l3 15 4 1-2 6 2-1 3-7 4-9h2v-3h2l1-7-6 10-2 5-1-3 7-17 6-7z" fill="#5F6061"/>
<path transform="translate(1376,476)" d="m0 0 7 1v2l-4 1-4 6-10 8-15 3-9 8h-2l-2 5-3 6v9l2 4-1 8-4 2-2 6-5 5-8 5-5 3-6 6-4 13-4 3-3 1-1 3 2 2h9l8 3 8-1 21-4 5 2 6 7 11 4v3l-5 2-7 2-10 5-21 5-13 3-3 5v7l5 5 1 4-6 10 8 1 10 1 16-4h8l6-2h5l2 2v3l-5 2-15 3-4 2h-6l-3-1h-13l-4 2-12 2h-5l-4-2v5l-13 3-18-2-7 6 1 5-9-1-9-2-3-2-7 1-5 2h-12l-9-2-1-3-15 2-1 2h3v2h-11v-2l-4-2 3-3 10-2 5-2 9 2 8 5h10l-1-12 6-3 12 2 2-5 5-2 9-1 4-3 5 1 1 1 19 1 3 1 5-2 2-5 3-5-3-7-2-6-5-3-6 1-4 4-3 1h-7l-7-1-2-8-3-4-12-2-7-1-10 3-2 4-4-1v-2h-2v-2l6-3 1 1 12-4 16 3-1-3-15-4-1-2h2v-2l10-1 6 7 6 1 1-3 10-4 4-3 2-4 4 1-1 6 1 2 5-1 6-5 5-2-2-3-4-1-5 2h-5l1-7 3-4 1-7 3-1-2-2v-3h-2l2-4 5-1 2 1 2 4 6-1 2-5 10-7 5-4 10-4 5-7 1-4 2-19 2-10 5-7 3-2 6-2 2-5 3-2 9 1 10-4 3-7z" fill="#BFBFBF"/>
<path transform="translate(1596,614)" d="m0 0h4v13l-15 3-6 2v2l-13 8-3 7-3 5-2 3-9 2-13 8-7 4-5 6-1 11-4 5-7 2-13 5-9 3-10 3-5 1h-7l-5-1-14 7h-9l-2-1 1-7h-5l-4 7-9 3-7 2h-8l-9-4 1-4 4-4 15-1 3-2v-8l3-4v-5l-1-1h-5l-6 3-12 4-9 1-7 1-9-1-6 3h-6l-1 5-5 4h-2v9l13 1h4l1-3h18v2h2l-1 5-20 4h-2v2l-10 4-3 3h-7l-13-3-11-3-9-5-1-4h-2l-3-4h-4v-3h-2v-4l-5-1-4-3v-4l-5-1v-2l-6-2-19-2-8 1-3-4v-2l-14-1-5 2-8-4-4-4-17-2-25 2-16 5-5 1-2 4-1-2 3-5 6-4 9-1 20-2 6-2h22l4 3 9 1 10 2h10l7-1 8 3 5 3 6 2h6l4-1 1-5h-8l-3-1v-5l4-1 12 2 3 7 4 1h8l3 3 16 6v5l4 3 8 4h7l6-3v-6l4-3 10-2 3-2h6l3 2h5l7-3 9-2 2-1-1-5-2-6-3-6-2-3 1-4h14l5-2 5 2 5 6 2 4 2 1-1 6 2 8 1 1-1 8 4-1h9l6 1 2-4 6-1 8 1 2 2-1 4h-2l3 5 2 3h6l5-5h12l7-5 7-3 4-1 5 1 1-5h-2l-1-5 7-6 3-6 10-4v-6l5-4h7l-1-8 4-6 4-7 8-2 11-7 9-1 11-8z" fill="#939494"/>
<path transform="translate(1095,756)" d="m0 0 7 2 5 1h11l6 3 12-1 5 4v2l-5 2-7-1-8-5-12 2 1 5-3 3v8l11 1 3 1 3 5h6l5 5-1 3-7 4 4 2 9-3 5 3h9l6 2 5 1 1 3 4 2 1 8-4 5-3 2-2 4-4-1-3-1-1-2-5-1-1-1h-12v2l-17 5-14 2h-7l4-4v-2l-7-2h-12l-8-1-4-2-9-1-20 1-10 3 1-4 6-3h3 6l5-3 2-3 5 1 11 2 1 3h4v-4l4-1 1-5 4-1-1-2h-3l-1 3-10-2-5 3-8-4 2-4 5-2-1-4 6-3 5 1-1-3-11-4-2 10-5 4-6 1-1 3-5 2-3 2h-5l4-6-12 6-10-1-14-5-6-3-5-4 6-6 7-3 7-4-2 5-2 3 7 2 6 2-1 4-5 4 4 3 1-4 4-1 1-4 3-3 8-4h10v-2l-5-1-1-5 5-2 2-2h6l-1-6 3-1 6 3v3l2-1-3-9-2-3 5-3h6l-3 8 5-3 3-5 5-1h9z" fill="#939494"/>
<path transform="translate(894,619)" d="m0 0 2 1-4 4h-5l4 5 19 1v-2l6-4 5 1 7 3v2h-2l-2 4-4 2 9 7 10-1 23-2 6-1-1 6 1 3 6-2 1 2h2l2-5 2-3v-4h2v4l13-2 14 1v4l-9 5v3l-2 1v3l2-1h8l2 2 1-4 2 1-1 4 5-1 3 1-2 6-5 2-1 5h-2l-1 3-6 2 3-5 6-2v-2l-21 9-8 6-3 5-6 4 6 1-3 1v2h-2l1 2 6-1-4 3-7 4-1 2-6 2-22-1 4-2 10-3-13 1 3-2 15-4 10-5 2-2-12 1-9 2-4-1 3-3-3-1 4-3-6-1 4-3-1-2-4 1h-9l-4-2h2l-1-2-8-3-5-2-6 1h-18v-1l12-2-9-3-7 1-3 2 4 2h-6l-3-2-4-1 3-2-10-4-9-2-4-3v-3h-2v-2l10 3 2 2 4 1h9l-11-4-9-3-11-8-1-3h-2v-2l-3-1v-1l19-4 17-1 3-2-1-3-4-1z" fill="#616263"/>
<path transform="translate(1596,453)" d="m0 0h4v127l-5 5h-11l-2 2h-10l-9 2-6-3-5-4-6-9-1-7 4-15 5-19 6-17 3-8 3-31 3-6 7-5 12-5z" fill="#5F6061"/>
<path transform="translate(157,743)" d="m0 0 4 1 4 2v2l4 1v6l5 1 3-1 1-2 8-1 3 2v6l5 3v4l-4 3 1 4 13 3 7 2v3l10 2 7 2 1 2 8 2v2l4 1 6 1 11 3 6 4 1 4 10 7v2l-8 1-6-2h-7l-13 2-2 9 2 2 7 2 2 4-10-1-17-4-12-2-3-1h-6l-8-5v-2l-2-1h12l8-2-3-3-6-4v-1l12 1-2-5-1-2-7-2-7-6-13-3h-18l-12-1-5-3v-5h-2l-1 3-7 1v-3l-4-2-7-2-10-2-7-2-3-4-6-3v-3l3-2-3-3 1-2 11 2 17-1 7-2 11-2 1-6 6-2z" fill="#ABABAB"/>
<path transform="translate(1266,500)" d="m0 0 5 1v2h2l1 6h-2l-2 4-1 8-6 7v-3l1-2-5-2-2-5h-2v-2l-6-2-3-3-4-1-9 4-11 7-4 5-3-1 5-7 5-5v-5l-15-1-8 8-1 2h-2v2l-6 4-2 6-1 2-3-1v-5h-3l-2 6-1 1-1 11-4 4h-2v2h-2v2l-5 5-9 4-3 7-5 3-4 4-6 2h-9l-5 1-6-1-5-2-10 4-1 1h-8l-9-2-7 7-8 4-3 9-2 1-9 1-3 2-4-1-5 2-1 3-5-1-3-2v-2h9l4-6-1-6-4-2 5-1h4l1-4 5-6 7-5 13-3h10l5 1 18-1 8-3 3-10 12-11 7-5 7-2 5-4 4-2 4-5 12-3 1-5 5-4h2v-2l13-6h23l17 2h16l4 1 5-1z" fill="#BFBFBF"/>
<path transform="translate(1538,584)" d="m0 0h5l3 3 2 1h13l3 3v5l7 2 4 2-1 3-2 1v6l-4 3-7-1-2-2-2-7 1-5-3-2-5 1-4 2-5 11-1 7-4 8-3 9-1 4v4l-8 2-2-1h-8l-6 4-1 5 2 4 7 5 1 5-4 4h-5v5l-4 2h-3l1-5 2-4-11-3-7-1-11 5-8 8-7 3-7 1-7-6v-2l-4 1v5l-7 3h-3v-4l2-1-1-6 4-3h10l7-1 2-4 5-8 9-7h2v-2h2v-6l5-4 6 1 2 2 7-1 3-2 1-5-2-3 1-7 3-3 5-3 9-8 4-1 4 1 2-6 2-5 1-3 5-2 4-6z" fill="#EEEEED"/>
<path transform="translate(168,737)" d="m0 0 9 1 4 3 1 4-1 3h-2v2h7l2-3 9-1 6 6 15 4 2 1v2l-3 2 7 3-1-4h6v-2l10-2-3-2 1-4h8l4-2 8 1 2 3h-5l-4-1v3l5 4 7 3 7 2 1 3 8 1 3 3 7 3 1 2 10 3 9 6 5 2 8 4 17 6h2l-3-5h13l4-3 8 1 5 1 5-3 14-3 6-3v4l-7 8-4 2h-17l2 2 19 4v3l-10-1-16-2-13-1-16-4-17-6-8 1-6-2-2-2v-3l2-2-7-4h-6l-6 2h-10l-4 2h-8l4 9 1 9-13-4-3-1-6-1-4-2v-2l-8-1-1-3-15-3-2-1v-3l-9-2-11-2-2-2 1-4 4-2-1-4-5-3v-6l-7-1h-3l-1 3-4 1-4-2-1-6-3-1v-2l-5-2-2-5 3-1 4 1z" fill="#BCBCBD"/>
<path transform="translate(0,771)" d="m0 0 12 2 15 6 6 3 12 2 1-3 5-1 18 5 9 3 13 3h5l3-3 16 1 13 3 7 4 5 3 12 4h8l1 3-3 4-25-1-3 2-18-1-8-1-8 2-3 1-14-2-2-1 1 3-5 1h-3l-1 3-8-1-20-10-4-1h-8l-3 2-17-1-9 1z" fill="#ABABAB"/>
<path transform="translate(1599,440)" d="m0 0h1v13l-7 3-7 6-11 5-6 4-2 5-3 31-6 16-5 16-3 12-4 15 1 7 7 10 7 4v1l-5 1h-8l-5-3v-2l-11 1-12-2-7-2v-3h2v-2l5-3 1-3h2v-4l-5 1-1-2v-7l3-10 5-9 3-4h2v-2h2v-2l9-9 3-5 6-5h2l3-9 1-18h-2l-1-2v-6l5-7 3-7 4-6 5-9 4-3 4 2v5l3 2 3-6 11-3 2-4z" fill="#939494"/>
<path transform="translate(930,740)" d="m0 0 9 1 6 8 7 15 1 6-8 6-2 2-6 2-6 4-10-2-9-3-1-5h-2l-3 3h-5l7 5-4 2-3 1-3-1-2-6-4-4 2-4 3-4-4-1-2 4-4 3-10-1-4 2-12 2v-3h2l-3-3-17-3-2-2h20l8-2-16 1-2-2h3v-2l-5 1 2-4 7-3 4-5 6 3 16-8h3v2l-3 3h-2l-1 4-2 4 7-4 3-7h10l9-2 8 1 3 1-1 3h-2v2l7-4z" fill="#5F6061"/>
<path transform="translate(596,620)" d="m0 0 4 1 11 14 12 14 9 10 9 11 12 12 2 3 4-2 6-5 3 1-8 8 2 5 22 22 4 1 2-2 8 4 9 1-4 2 7 4v6h-2l-2-4-3-1 1 3v10h3v-4l21-5 5 1-1 3-10 6 3 4 4 10-2 2-5 1-14 1-2 3-15 1v-1l8-2-5-11-1-6-7-1-9-7-5-5 1-8-10-10-7-8-5-4-4 1-8 6h-2l2-4 7-7-1-7-4-2-7-7-2-5-4-2-3-4v-2l-4-2-12-14-11-13v-3l-3-1-4-7z" fill="#1B1B1A"/>
<path transform="translate(867,541)" d="m0 0 2 1-1 2h12l2 2h-8l-10 3-6 5-3 4 5-2 12-5 8-1 5 2h3l-4-5 4 2 4 5 10 7 5 4v2l-4-2-11-7h-3l5 4-1 2-10-8-6-2v3l6 2-3 1h-10l-6 3 11 2h6 3l5 2 6 1 1-2 3 6v2l-3-1-3-3h-8l1-3h-24l4 5 9-2h6v1l-11 3 2 5 2 4 6-4-1 4 6-2-3 3-5 2h3l9-4h2v-2l4 2-5 5-6 5v5h2l-2 4-8 7-3 4-2-1v-3l-6 1v-5-2l-4 1 2-6-2 3-11 2v-2h2l1-4h-6v-2l4-4 1-2h2v-2l5-4 4-5 5-1v-2l-6 2-7-6-3-1v-2h-2l-1-3-7 6-5 5h-2l-2 5-8 9-4 1 4-5h2l1-4 4-4v-3l-14 14h-4l2-4-4-1 1-2h2l1-2h2l2-4 9-5-10 4-3 2-3-1-2 6-3 4 1 3-2 1-1 7h6l-4 4-3 2h-5l1-3-4-2 1-4-8-1v-2l7-2 1-2-8 2v-2l-7 2-4 1 3-4-5-1 1-2 16-6h2l2-4 5-6 1 2-6 8-1 2h-2v2l-6 4 4-1 4-2 1-4 5-3 3-6 5-5 9-4 30-1 5-5z" fill="#636465"/>
<path transform="translate(979,592)" d="m0 0h6l2 4v13l-3 5-1 4-12 6-6 1 5-5-12 7-4 4-16 8-11 3-9-6 2-2 5-2 1-2h2v-2l-9-3-4 1-5 2v2h-19l-4-4v-2l6-2 1-2-9 3-18 3-4 2h-6l-2-3 3-5 1-3-4-2 3-2 7-1 4-1-2 4-4 2 5 5 6-1 1-2h-2l1-6h2l2-4 9-4 5-5h3v2l7 2 5 2-1 5-2 1h-14l-5 4h9l5-1 1 4-4 10h3l2-5 7-9 11-2 9 2 4 3 5-1 9-5 11-7 8-5 1-2 7-3z" fill="#ACACAC"/>
<path transform="translate(731,701)" d="m0 0 10 3 9 7 3 2h-3v2l5 1 6 5 5 13 11 40 1 6 2 1-4 1-4-5-6-11-7-19-2-1v3l-10 5v2h-18l-2-2 1-2-5-11-2-2 11-7 1-2-11 1-11 3h-4v4h-3l-1-13 4-1 1 6h2v-6l-6-2-3-3 7-2 12-5 7-5 1-5z" fill="#111110"/>
<path transform="translate(957,782)" d="m0 0h2l-2 7h-2v2l6 1 2-1-2 4-3 3-16 5v5l-3 1v4h2v2l-6 3-10 6-8 6-3 3-4 2h-16l4-5h-2v-5l-2-5 7-5h2l2-7-7 2-14 8h-2l-2 5-8 6-7 3-4 4-4-6-1-7 7-1v3l4-2 1-2h-2l1-4 4-4 10 2 11-6 3-3 1-8-4-8 3-3 4-1h5l4-1 1-2 9 7v2l5 1h3l6-2v-2l-3-1 3-2h2l1-3 2 1-2 4 6-2h4l1 2 6-1z" fill="#1E1E1E"/>
<path transform="translate(570,752)" d="m0 0 5 2 6 4 7-1 10 4 5 4 7 3 5 3 9 2 6 3v3l-1 4-5-1-4-3-13-5h-7l-8-4-9-7-5-4 4 5 6 5 2 4-5-1-6-4v-2h-11l-9 1 2 5 10 5-4 2-11 1-11-2-4-3-11-2h-13l-6 1-3-3h-8v3l-8 1-3 3-9 1-5 1-11-4v-2h14l-4-1h-16v2l6 2 10 4 1 2-9-2-5-1-24-1v3l-8-1h-20v-1l9-1 6-3 7-1 2-1-1-2 8-3 36-1 13-3h14l19-3h17l7-3 6-4 14-2z" fill="#BFBFBF"/>
<path transform="translate(1095,756)" d="m0 0 7 2 5 1h11l6 3 12-1 5 4v2l-5 2-7-1-8-5-12 2-14 2-3 5-5 1 1 7-6 1h-3l-1 3-8-2v2h-7l-1 1-2 10-5 4-6 1-1 3-5 2-3 2h-5l4-6-12 6-10-1-14-5-6-3-5-4 6-6 7-3 7-4-2 5-2 3 7 2 6 2-1 4-5 4 4 3 1-4 4-1 1-4 3-3 8-4h10v-2l-5-1-1-5 5-2 2-2h6l-1-6 3-1 6 3v3l2-1-3-9-2-3 5-3h6l-3 8 5-3 3-5 5-1h9z" fill="#ABABAB"/>
<path transform="translate(1293,643)" d="m0 0 5 1 2 3 12 2 10 1 16-4h8l6-2h5l2 2v3l-5 2-15 3-4 2h-6l-3-1h-13l-4 2-12 2h-5l-4-2v5l-13 3-18-2-7 6 1 5-9-1-9-2-3-2-7 1-5 2h-12l-9-2-1-3-15 2-1 2h3v2h-11v-2l-4-2 3-3 10-2 5-2 9 2 8 5h10l-1-12 6-3 12 2 2-5 5-2 9-1 4-3 5 1 1 1 13 1 5 2v5h5v-2l10-5 2-4z" fill="#EDEDEC"/>
<path transform="translate(1478,452)" d="m0 0 5 1-1 2-5 1v7l-3 7-7 9-8 5-6 3-5 5-6 1-1 3-4 1-7-2-10 5-8 5h-7l-10 5-7 3-8 6-3 3-3 1-2 3-6 1-5-6 1-3 8-6 2-1h8l1-4 5-6 21-12 9-4 17-4 3-4h2l1-3 5-4 2-4 7-1 14-4z" fill="#C0C0C0"/>
<path transform="translate(689,713)" d="m0 0 7 3 2 1 9 1-4 2 7 4v6h-2l-2-4-3-1 1 3v10h3v-4l21-5 5 1-1 3-10 6 3 4 4 10-2 2-5 1-14 1-2 3-15 1v-1l8-2-5-11-1-6-7-1-9-7-5-5 1-6 4-2h7l2-4h4l-2-2z" fill="#5D5E5F"/>
<path transform="translate(3,780)" d="m0 0 10 1 8 4 5 2 11 7 6 6v2l5 2 9 6 9 3-2-10-7-6-1-4h10l5 2 9 2 4 1h11l4 5v2l-10 1h-4l3 5-9-1-2-1 1 3-5 1h-3l-1 3-8-1-20-10-4-1h-8l-3 2-17-1-9 1v-25z" fill="#939494"/>
<path transform="translate(1519,757)" d="m0 0h5l2 2h22l3 3v2l4 2-2 10-1 8 4 2-1 7-5-1-18-4-8-9h-13l-10-4-2-2-8-2 2-4 6-2h6l7-6z" fill="#aaa"/>
<path transform="translate(168,737)" d="m0 0 9 1 4 3 1 4-1 3h-2v2h7l2-3 9-1 6 6 15 4 2 1v2l-3 2 7 3-1 2-13-1 5 7 2 6 5 2 1 3 9 3 10 1 4-1 4 4 10 3v-2l-2-1v-3l3 1 2 7v5l-13-4-3-1-6-1-4-2v-2l-8-1-1-3-15-3-2-1v-3l-9-2-11-2-2-2 1-4 4-2-1-4-5-3v-6l-7-1h-3l-1 3-4 1-4-2-1-6-3-1v-2l-5-2-2-5 3-1 4 1z" fill="#C0C0C0"/>
<path transform="translate(981,636)" d="m0 0h2v4l13-2 14 1v4l-9 5v3l-2 1v3l2-1h8l2 2 1-4 2 1-1 4 5-1 3 1-2 6-5 2-1 5h-2l-1 3-6 2 3-5 6-2v-2l-21 9-6 3 1-3h2v-2l9-5 10-2 1-5h2l-1-2-5-1v-2l-6 2h-5v2l-3 1v-5h-2v-2l-4-1-7-1-2 5-6 5-10-1v2l-5-1-4-4v-2l-7 2-11 6-6-1v2l-9-1-4-2v-2l5-1v-2l10-4 2 1-8 5h12l1 1 5-7 7-3 7-1v-8l13-2-1 6 1 3 6-2 1 2h2l2-5 2-3z" fill="#AEAEAE"/>
<path transform="translate(1086,614)" d="m0 0h13l7 4-2 4-4 5-1 3h2l-1 5-2 5-15 3-3 4-6 1-6-1-1 2-10-2-4-5 2-5 1-2h3l-1-4v-7l4-1 1-3 9-3h8l2 2 1-4z" fill="#616263"/>
<path transform="translate(851,653)" d="m0 0 5 1 3 3 6 2v2l6 1 5 5 2 4-2 1-14-7 2 5h5v2h-2l3 6-4-2-2 1-1-4-2-1h2l-4-6-2-1-1 16-2 5 9 31-1 5-3 3-3-5v-2l-4-1v2h-6l-5 4-1-2v-7h-4l2-9 2-7 3-25-3 9h-1l-1-20 4 2 2 2 2-2-2-6v-2l4 1 1 3 3 1 1 4 2-4 4 3v-2h2l-1-2-5-3z" fill="#5C5D5E"/>
<path transform="translate(126,687)" d="m0 0 10 3 5 4v2h2v2l6 2 13 9 1 2v6l-3 5v5l-5 6 6-1-2 4-2 3-6 3v-5l2-6-6-7-14-9-3-4v-2h-2v-2l-6-2-11-6-6-2-5-5v-3l13-1 8 1z" fill="#BFBFBF"/>
<path transform="translate(1143,586)" d="m0 0h8l5 6-2 10-3 5-8 8h-2v-2l-1 1-7 5 6-1v10l-26 13h-9l-2-2 5-5 3-1 2-5h2v-2h3l1-4 5-1-4-2 3-3 1-2 3 1 1 2 4 1 2-5 8-6-6 1-5 1-2-4-4-1-5 2-5-4-1-3 5-4 8-4 11-3z" fill="#939494"/>
<path transform="translate(803,636)" d="m0 0 2 3-3 4h2l1-3 7 1-6-2 1-2 5-1 5 2 6 5 1 7-3 1-1 3-2-4v3l2 4v5l-9-3h-12l-8 4h2l5-1 1 2 1-1v-2l4-1 7 2 5 6 1 3-5 3h-2l-2 4-5 1-6-6v-3h-2l1 4 6 5 1 4-10-2h-2v-3l-4 4-7 3h-3l-2 5-2 1 1-5 3-5h2l1-4 2-1 3-7 4-9h2v-3h2l1-7-6 10-2 5-1-3 7-17 6-7z" fill="#A8A8A8"/>
<path transform="translate(511,793)" d="m0 0 9 2h9l8-2 6 2 13 2 3 2v2h5l4-1 3 6 8 1 9 1 1-2 1 4-8 2-3 2-3 6-10-1-3-3v-4l-9-3-5-3-11-2h-4l1 3 4 4-1 2-5 1h-7l-3-2-8-1-5-4-4-1 1 3h-5l-1-5h-7v2l-7-1-4-3h2l-1-3h13l10 2 4 1 2-2v-3h-2z" fill="#939494"/>
<path transform="translate(1548,463)" d="m0 0 6 1 2 1-1 5-3 4h-3v7l-6 13 3 5h7l2 3-6 5-14 9-9 3-9 4-3 3-4 5-9-1-2 4-9 4-8 5-4-1v-2h-5l-2-5 21-7 7-2 6-9 4-3 7 1 14-7 1-1 2-12 1-2h2v-6l3-5 3-7 8-6v-2l-2-1z" fill="#EEEEED"/>
<path transform="translate(0,771)" d="m0 0 12 2 15 6 6 3 7 1 1 1h16l19 5 14 4 8 5 2 4-1 3-4-6h-13l-5-2-9-2-2-1-10-1 1 4 4 2 5 6 1 8-3 1-12-6-9-6-1-4-5-2-4-4-8-5-10-4-9-2h-6z" fill="#aaa"/>
<path transform="translate(930,740)" d="m0 0 9 1 6 8 7 15v2h-18l-10 1h-2l-1-4h-8l-7-7-10-5-8-1 1-5h10l9-2 8 1 3 1-1 3h-2v2l7-4z" fill="#ABABAB"/>
<path transform="translate(693,789)" d="m0 0 4 5 1 3v5l3 6v9l2 5 12 1v-2h4l-1-3-3-2 1-4 4-2h10l3 3-1 3-2 1v2l6 2 3 5h3l3 3-1 3-5-2-10 1-12 1-7-2v2l-11-2-3-2-2-3-4 2-3-6-3-3-2-4 1-5 5-5 2-5 4-1z" fill="#1C1C1C"/>
<path transform="translate(210,765)" d="m0 0h19l1 2 11 3 7 2 15 2 4 1 4 2-5 5h-8l2 5h-2l2 6-7-1-5-3-2-2-7 1-9-2-7-3-8-8-4-7z" fill="#ABABAB"/>
<path transform="translate(820,559)" d="m0 0h27l1 4h-9v2l-5 1-8 5-8 4h-3-2l-2 6-3 4 1 3-2 1-1 7h6l-4 4-3 2h-5l1-3-4-2 1-4-8-1v-2l7-2 1-2-8 2v-2l-7 2-4 1 3-4-5-1 1-2 16-6h2l2-4 5-6 1 2-6 8-1 2h-2v2l-6 4 4-1 4-2 1-4 5-3 3-6 5-5z" fill="#4F4F50"/>
<path transform="translate(979,592)" d="m0 0h6l2 4v13l-3 5-1 4-12 6-6 1 5-5-12 7-3-1-3-4-5-2 2-4 4-2 2-5-2-2 12-7 1-2 7-3z" fill="#C0C0C0"/>
<path transform="translate(877,554)" d="m0 0 6 1 10 8-5-5-1-2 7 2 11 8 3 1 1 5-2 4-12 6-4-2v2l-8 4-5 2-3-1 3-3 3-1h-2v-3l-3 3h-2l-5-7 1-3 5-2-9 2-5-6v-1h12l13 1 1 2h6l6 5-3-6h-7l-7-3v1l-13-1-6-1 3-3 4-2h11l-4-2z" fill="#B9B9B9"/>
<path transform="translate(1390,548)" d="m0 0 9 1 6 2 1 3-2 5-5 5-4 3-8 2-8 9-8 2-7-3-3-4-5-3v-5l8-5 9-1 11-6h2v-2z" fill="#C0C0C0"/>
<path transform="translate(687,761)" d="m0 0 12 2 7 1-1 3-8 4-6-2v-3l-30 10-1 1h6l1-1h6l2 3 7-1 11 6v5h-8l-2 4-4 4-3 1-10-4h-7l-2-3h-4l1-7 2-8 13-8 11-5z" fill="#1D1D1D"/>
<path transform="translate(1596,614)" d="m0 0h4v13l-15 3-6 2v2l-13 8-3 7-3 5-2 3-9 2-13 8-2-1 2-2v-6l5-4h7l-1-8 4-6 4-7 8-2 11-7 9-1 11-8z" fill="#939494"/>
<path transform="translate(1204,611)" d="m0 0 3 2-1 3-4 1-2 4h-3v2l-5 3-9 9h-6v4h5l1 4-3 2-2 4 1 5 1 1v5l-3 2-4-1-7-6-2-1-13-1-3 1h-7l1-2 11-2-1-4 1-2h4l2-4 4-3 5-1v-2h2l2-4 8-3 9-4 5-3 4-5 6-2z" fill="#C1C1C1"/>
<path transform="translate(556,855)" d="m0 0 46 2 15 3 5 3-2 4-5 6-13 1-4-1-3-5-10-3-11 2-11-2-2 5-4-2-1-6 3-1z" fill="#1D1D1D"/>
<path transform="translate(418,798)" d="m0 0 4 4 19 5v1h-6l-2 5 10 6-3 1-10-5 1 3-2 2h-3v2h2l1 3h-4v-3l-10 1-10-2-1 2-5-2-4-2-18-2 1-2h10l11 1 4-1v-3l-6-4v-3l6-2 12-2v-2z" fill="#939494"/>
<path transform="translate(1068,657)" d="m0 0 7 1 7-1 2 4-4 5-6 5h-2l-1 5-9 6-6 3-12-1-3-6-4-2 1-4 7-1 5-5 4-2 8-2 4-3h2z" fill="#ABABAB"/>
<path transform="translate(0,861)" d="m0 0h37l24 3 18 1h50l33 2v1l-61 2h-38l-39-3-24-3z" fill="#A5A5A5"/>
<path transform="translate(957,782)" d="m0 0h2l-2 7h-2v2l6 1 2-1-2 4-3 3-16 5v5h-3l-5 1-10-4v-2l-9-2-1-3 2-4v-4h2v2l5 1h3l6-2v-2l-3-1 3-2h2l1-3 2 1-2 4 6-2h4l1 2 6-1z" fill="#646566"/>
<path transform="translate(1516,661)" d="m0 0h4v9l-4 4-5 1-10 5v6l-7 6v3h-5v-3l-6-1 1-4h3v-2h2l1-4 3-1 1-5 2-3-3-2-5-1h-7l-5 2-3 3h-2l-2 4-5 3-12 2-6 3-7-1-2 5-2-2-1-6 5-3h2v-5l5-1v2l4 2v2l4 1 9-2 6-3 4-6 10-5 8-1 13 5 1 3-3 2-1 4 6-2 1-5 7-2z" fill="#C0C0C0"/>
<path transform="translate(1139,714)" d="m0 0h15l5 1h9v2l11-1 9 3 11 3 2 4-4 2-9-1-4-3h-10l-4-1h-9l-1 2v6l1 3h2l1 4 3 1 2 5v5l-6 4v4l4 2 1 4-7 5-4-2v-2l1-5 2-2v-5l-3-2v-6l1-4-1-9v-6l-2-5v-4h-10l-6-1z" fill="#959696"/>
<path transform="translate(1141,715)" d="m0 0h11l3 1 3 9v8l1 7-2 10 4 2v5l-3 3v4l2 2-12-1-1-7 4-2-1-5-5 1-2-2v-5l-8-3-3-3 2-4 4-1 5 5h4l1-6 5-2 1-3-4-9h-8z" fill="#ACACAC"/>
<path transform="translate(803,660)" d="m0 0 8 2 5 6 1 3-5 3h-2l-2 4-5 1-6-6v-3h-2l1 4 6 5 1 4-10-2h-2v-3l-4 4-7 3h-3l-2 5-2 1 1-5 3-5h2l1-4 2-1 3-7 2-5 6-1 5-1 1 2 1-1v-2z" fill="#A5A5A5"/>
<path transform="translate(1266,500)" d="m0 0 5 1v2h2l1 6h-2l-2 4-1 8-6 7v-3l1-2-5-2-2-5h-2v-2l-6-2-3-3-4-1-9 4-11 7-4 5-3-1 5-7 5-5v-5l-8-1v-2l19 2h16l4 1 5-1z" fill="#C0C0C0"/>
<path transform="translate(965,639)" d="m0 0h3l-1 6 1 3 6-2 1 5-4 2-5 4-1 4h-5v2l-5-1-4-4v-2l-7 2-11 6-6-1v2l-9-1-4-2v-2l5-1v-2l10-4 2 1-8 5h12l1 1 5-7 7-3 7-1v-8z" fill="#A8A9A9"/>
<path transform="translate(1552,595)" d="m0 0 5 1 2 2-1 5h-6l-3 4-4 8-2 7-2 2v6l1 5-5 3-4 8-12 3-9 4 4 8-4-2-4-3-2-4 1-5 7-5h9l3 1 6-1-1-7 3-5 3-10 3-5 1-8 5-9z" fill="#C0C0C0"/>
<path transform="translate(1043,821)" d="m0 0h13l-1 3h-2l-2 5-1 3-5 2-4 3-12 1h-17l-7-2-9-1 1-2 16-3h8l4-2h4l1-2v2h2l1-5z" fill="#1D1E1E"/>
<path transform="translate(391,781)" d="m0 0 2 1-2 4-6 7-4 2h-17l2 2 19 4v3l-10-1-16-2-13-1-8-3 2-1-3-5h13l4-3 8 1 5 1 5-3 14-3z" fill="#C1C1C1"/>
<path transform="translate(1543,759)" d="m0 0 7 1 1 4 4 2-2 10-1 8 4 2-1 7-5-1-18-4-8-9h-13l-10-4-2-2-8-2 2-4 6-2 6 1-3 2-1 4 8 2 7-1 4 1 2-2-4-2-1-3 8-4 1 4 2 9 9 8 10-1 3-6-2-3 3-4 1-5-4-2-1-2z" fill="#939494"/>
<path transform="translate(1250,645)" d="m0 0 5 1-3 3-5 4-6 3-7 5-9 2-9-2 1 4-1 5-3 2-14-1-3-2v-2l-15 2-1 2h3v2h-11v-2l-4-2 3-3 10-2 5-2 9 2 8 5h10l-1-12 6-3 12 2 2-5 5-2 9-1z" fill="#C0C0C0"/>
<path transform="translate(893,599)" d="m0 0 4 4 9 2 1 5-3 2h-14l-5 4 4 2-5 3h-4v2l-15 4-2 1h-6l-2-3 3-5 1-3-4-2 3-2 7-1 4-1-2 4-4 2 5 5 6-1 1-2h-2l1-6h2l2-4 9-4 5-5z" fill="#aaa"/>
<path transform="translate(56,793)" d="m0 0h10l5 2 9 2 4 1h11l4 5v2l-10 1h-4l3 5-9-1-2-1 1 3-5 1h-3l-1 3-4-1 1-4-2-8-7-6z" fill="#939494"/>
<path transform="translate(1447,629)" d="m0 0 7 2 7 4h8l8 2-2 5-1 4h-2v2l-6 4-3 3-4-2-1-1-1-7-10-4-9-6v-4z" fill="#C0C0C0"/>
<path transform="translate(838,669)" d="m0 0h1l1 10 1-6h2v8l-3 22-4 11h4l1 7h2l3-3 4 1-5 3-4 4-2-1-2-5-4 2v2h-5l1-11-1-11 3-19h1l1 9 3-8 1-14z" fill="#1F1F1F"/>
<path transform="translate(1263,470)" d="m0 0 6 1 4 7v6l-3 3-3 1-19 1-5-2-1-2 3-8 4-3 9-2z" fill="#C0C0C0"/>
<path transform="translate(908,743)" d="m0 0 8 1 3 1-1 3h-3v3l5 1 3 3v2l5 2 5 5 1 2-10 1h-2l-1-4h-8l-7-7-10-5-8-1 1-5h10z" fill="#959595"/>
<path transform="translate(1353,444)" d="m0 0h10l2 2-1 5-1 9-5 8-6 1-8-4-3-3 1-7 4-7z" fill="#BCBCBC"/>
<path transform="translate(1456,580)" d="m0 0 6 1 1 3 4 1 4 8 6 7-1 6-5 2-5-4-1-4-5-1-14-7-5-1 3-2 10-8z" fill="#939494"/>
<path transform="translate(867,580)" d="m0 0 3 1 2 9 1 5 2 1-1 2h6l-1 4-4 5-1 5-3-1v-3l-6 1v-5-2l-4 1 2-6-2 3-11 2v-2h2l1-4h-6v-2l4-4 1-2h2l1-2v2l12-2z" fill="#676768"/>
<path transform="translate(1122,614)" d="m0 0 4 1 1 2 4 1-1 4h-5v3l6-1h1v-2l3-3 4-1v10l-26 13h-9l-2-2 5-5 3-1 2-5h2v-2h3l1-4 5-1-4-2 3-3z" fill="#909191"/>
<path transform="translate(978,651)" d="m0 0 7 1 4 2v2h2l1 4h2v-2l6-2h5v2h5l1 3-2 1-1 4-12 4-5 3h-2v2l-2 1-6 10-2-1 5-8 1-5-1-1v-6l4-2 2-4-5 2h-6l-6-2 1-2h2z" fill="#919292"/>
<path transform="translate(1044,585)" d="m0 0h5l2 4-1 4-4 6-9-1 1 3h-3l-3 6h-2v3l-5 3-7 1-11-1 3-5 7-6h11l4-3 1-3h2l-1-4 5-5z" fill="#BEBEBE"/>
<path transform="translate(891,585)" d="m0 0v3l-3 3v7l-7 8-4 5-1 2h-2l-1 6h2l-1 3-6 1-3-4-3-2 6-4h-3l-7 1-1 1 3 2-2 1-16-1v-2h5l-1-3 9-3v-5l1-4h5l2-5 1 4-3 4 6-3-1 8 5-1 1 2-1 2 3-1 7-8 5-5h-2l-1-5z" fill="#202020"/>
<path transform="translate(1410,492)" d="m0 0 3 1-1 4-4 4-24 12-8 7-4 6-6 1-5-6 1-3 8-6 10-2 7-6 7-3 10-7z" fill="#EEEEED"/>
<path transform="translate(62,768)" d="m0 0 8 2 14 1 15 4 6 3 2 4-10-1-6 4-9-2-2-1 2-4-1-1h-7l-3 1h-14l-2-1 2-7z" fill="#C0C0C0"/>
<path transform="translate(867,659)" d="m0 0h7l12 5v1l-9 1 9 7 7 2 8 5 2 2 5 1v2h6l1 4 5 2 6 1 10 2-1 2-8 1-7-2-11-2-4-4-18-9-1-4-8-2-2-6-5-4v-2l-4-1z" fill="#212120"/>
<path transform="translate(759,803)" d="m0 0 1 2-3 9-1 8h7l1 3h19l12-6 2 1-5 5h8v2l6 1-3 2-8 4h-3l-1-3-7-2h-10l-4 2-5-2h-10l-2-4-3-2 1-2h2l-2-6h-3l-2-6h5l1-1h5z" fill="#232323"/>
<path transform="translate(1359,646)" d="m0 0 4 2 1 4-13 4-15 2-16 1-6 3h-15l-11 5-18-1v-1l18-3v-5l9 1 12-2 4-2h15l1 1h6l9-3 15-3z" fill="#C0C0C0"/>
<path transform="translate(1332,596)" d="m0 0h23v4l-10 2-5 3-1 1h-6v2l-11 4h-8l-8-3 2-3 1-5 3-1h9l2 3-8 3 1 1h7l3-4 3-5z" fill="#EEEEED"/>
<path transform="translate(849,570)" d="m0 0 1 2-1 2 3-2 5 1 4 3-2 4-5 4-4 5h-2l-2 4-5 3h-7v-2l-3-1 4-8 7-6z" fill="#1C1C1C"/>
<path transform="translate(1599,580)" d="m0 0h1v23l-5-1-5-3-10 1-2-2v-3l-4-1 6-7 4-3h11z" fill="#C0C0C0"/>
<path transform="translate(1133,808)" d="m0 0 7 2 8 1-2 4-7 1-5 1-5 2-10 3-6 1-9-2-3-3 1-5 3-1h15z" fill="#ABABAB"/>
<path transform="translate(1091,734)" d="m0 0h8l5 2 14-1 5 1 4 1-2 6h-3l-1 4h-12l-2-2v-3l-8 3h-8l-2-7z" fill="#ABABAB"/>
<path transform="translate(793,779)" d="m0 0h7l9 4 6 1 5 1v1l-9 2-4 4h-2l-2 4-2 1h-7v-2l-6-2-1 6h-1v-13l3-3h2z" fill="#1D1D1D"/>
<path transform="translate(828,853)" d="m0 0h38l13 1-2 4-5 1-35 1-14-1-2-5z" fill="#1D1D1D"/>
<path transform="translate(861,566)" d="m0 0h12l13 1 1 2h6l4 4v3l-11 2-4 1v-3l-6 7h-2l-5-7 1-3 5-2-9 2-5-6z" fill="#E9E9E8"/>
<path transform="translate(1053,642)" d="m0 0 4 3v2h6l4 1 5-2 5 2-4 3-6 5-9 3-16 2-2-1 1-6 7-4 6-2z" fill="#B0B0B0"/>
<path transform="translate(48,780)" d="m0 0 11 2 19 6 13 3h5l3-3 16 1 13 3 7 4 5 4-4-1-14-5-6-2h-14l-3 1v3l9 6v3l-8-2-2-2v-3l-6-2-2-2-14-4-19-5h-16l4-1 1-3z" fill="#C2C2C2"/>
<path transform="translate(1111,687)" d="m0 0 5 1 4 2 6 1-5 5-14-1-8 4-7 8-8 2v2l6 1-5 5-4-1-1-3h-7l4-4 7-2 1-3 7-2v-2l3-1 4-7 6-3z" fill="#C1C1C1"/>
<path transform="translate(841,562)" d="m0 0 5 1-1 5-5 3-3 4h-2l-2 5-8 9-4 1 4-5h2l1-4 4-4v-3l-14 14h-4l2-4-4-1 1-2h2l1-2h2l2-4 9-5 5-5 2-1 3 1v-2z" fill="#5D5E5F"/>
<path transform="translate(168,737)" d="m0 0 9 1 4 3 1 4-1 3h-2v2l5 1-1 2h-5l-1 3-4 1-4-2-1-6-3-1v-2l-5-2-2-5 3-1 4 1z" fill="#C0C0C0"/>
<path transform="translate(612,638)" d="m0 0 6 5 9 11 12 13 7 8 7 7 4 5-3 4h-2l-2-4-2-1-3-5-4-4v-3l-4-1-7-8-9-10-9-11-2-4h2z" fill="#1F1F1F"/>
<path transform="translate(1519,757)" d="m0 0h5l2 2 8 1-4 2-12 5v3l5 2-3 3-9-1-3 1-7-3 1-5h3v-2l7-6z" fill="#A9A9A9"/>
<path transform="translate(1468,460)" d="m0 0h3l-2 10-9 3-3 6h-4l-2 5-5 4h-7l1-4 2-1 2-7 7-7h6l8-6z" fill="#EEEEED"/>
<path transform="translate(771,704)" d="m0 0 10 2 11 6 8 7 7 8 6 7 2 4h-2l2 7-5-2-10-17-7-10-10-6-6-2 6 10 2 11v11l-3 3v-14l-3-12-4-8-4-3z" fill="#0F0F0F"/>
<path transform="translate(810,636)" d="m0 0 7 2 6 5 1 7-3 1-1 3-2-4v3l2 4v5l-9-3-10-1 2-1-1-3h2v2h4l2-15 1-1-5-1 1-2z" fill="#939494"/>
<path transform="translate(758,629)" d="m0 0 15 3 1 5-4 6 3 1-6 2-4 2-9-8-2-1-1-7 8 1z" fill="#606162"/>
<path transform="translate(1158,731)" d="m0 0 3 1v2h2l1 4 3 1 2 5v5l-6 4v4l4 2 1 4-7 5-4-2v-2l1-5 2-2v-5l-3-2v-6l1-4-1-8z" fill="#939494"/>
<path transform="translate(914,599)" d="m0 0 4 2v3l-9 11-9 12-1 2h-3l2-9 1-4-10 1h-5l4-5 2-1h14l3-3 4-6z" fill="#EEEEED"/>
<path transform="translate(909,773)" d="m0 0 3 1v5l14 3v4h5l-1 2 2 1v2l-4 3-4-1h-4l-2-1v-2l-4-2-14-11v-1h8z" fill="#C6C6C5"/>
<path transform="translate(439,791)" d="m0 0h12l3 3-11-1 10 5 20 9 13 7v3l-4-2-13-6-14-6-7-2-7 2-6-2-4-2 4-4 3-1z" fill="#939494"/>
<path transform="translate(963,788)" d="m0 0 1 2h3l1 2 8 2-1 2h-3l-2 8h-3l-2-2-4 2-2-2-11 1-3 2 1 9h-4v-2h-2l1-9 10-4 7-1 1-3 3-2z" fill="#9A9B9B"/>
<path transform="translate(687,761)" d="m0 0 12 2 7 1-1 3-8 4-6-2v-3l-33 11h-3l10-7 15-7z" fill="#5F6061"/>
<path transform="translate(1252,563)" d="m0 0h7l4 1v2l5 1 4 4-2 2-13 4h-8l-1-1 1-9z" fill="#C0C0C0"/>
<path transform="translate(972,693)" d="m0 0h6l-2 1 1 2 6-1-4 3-7 4-1 2-6 2-22-1 4-2 10-3-13 1 3-2 11-2 9-2z" fill="#949595"/>
<path transform="translate(1302,491)" d="m0 0h8l3 3-1 7-2 3-1 8-5 2-5-1 1-6v-13z" fill="#C0C0C0"/>
<path transform="translate(1423,700)" d="m0 0 5 1 3 4-1 4-7 3-9 1-1 1h-6l-5-2 2-5 6-3h7l4-1z" fill="#A9A9A9"/>
<path transform="translate(1298,690)" d="m0 0h9l15 2 3 2v4h-2v2l-2 1h-8l-10-3-6-5z" fill="#5F6061"/>
<path transform="translate(1393,628)" d="m0 0 9 3 1 3h2l1 5-6 3h-9l-6-2-1-4 5-5z" fill="#939494"/>
<path transform="translate(803,660)" d="m0 0 8 2 5 6 1 3-5 3h-2l-2 4-5 1-6-6v-5l4 2v2l4-1-2-4-5-1 1-2 1-1v-2z" fill="#939494"/>
<path transform="translate(1064,582)" d="m0 0 3 1v6l1 5-10 3-3 2-4-1-5 2-1 3-5-1-3-2v-2h9l4-6 5-3z" fill="#EDEDEC"/>
<path transform="translate(877,554)" d="m0 0 6 1 11 9 1 4h-6l-7-3v1l-13-1-6-1 3-3 4-2h11l-4-2z" fill="#E4E4E3"/>
<path transform="translate(1012,652)" d="m0 0 2 1-1 4 5-1 3 1-2 6-5 2-1 5h-2l-1 3-6 2 3-5 6-2v-2l-21 9-6 3 1-3h2v-2l9-5 10-2 1-5h2l-1-2-5-1 1-4 3 1 2 1z" fill="#A9A9A9"/>
<path transform="translate(943,652)" d="m0 0 9 1 1 4 3 1 2 4h-3l-4-4v-2l-7 2-11 6-6-1v2l-9-1-4-2v-2l5-1v-2l10-4 2 1-8 5h12l1 1 5-7z" fill="#A8A8A8"/>
<path transform="translate(89,822)" d="m0 0 3 3v2l7 1 6 6 2 1v2h2l1 3-5 2-7-3-3-3-6-3-3-2-2-2z" fill="#9B9B9B"/>
<path transform="translate(1007,787)" d="m0 0 1 2 7 2 6 2-1 4-5 4 1 2-9-3-8-2-1-5z" fill="#C5C5C5"/>
<path transform="translate(1341,713)" d="m0 0 6 1 12 4 1 3-3 8-4 1-4-3v-2l-5-2-4-3z" fill="#ABABAB"/>
<path transform="translate(738,608)" d="m0 0h1l1 5h3l-1 8 1 1v8h3l5 1 1 10 4 6-6-3-2-9-2 1-1 11 1 6-3-3-2-5v-14l-2-4-5 7-1-2 4-6v-1l-2-1 5-6v-2l-3-1z" fill="#616263"/>
<path transform="translate(1060,785)" d="m0 0h1v8l-5 5-7 2-1 3-5 2-3 2h-5l4-6-6 3-2-1 3-6 6-1 6 1 6-3 2-4 5-2z" fill="#888989"/>
<path transform="translate(1596,614)" d="m0 0h4v13l-15 3-4-1v-5l13-9z" fill="#999A9A"/>
<path transform="translate(867,580)" d="m0 0 3 1 2 9 1 5 2 1-1 2h6l-1 4-4 5-1 5-3-1v-3l-6 1v-5l3-8h2l-1-4-2-1 1-4z" fill="#5B5C5D"/>
<path transform="translate(1186,662)" d="m0 0 9 2 8 5 9 1-1 2-12-1-3-2v-2l-15 2-1 2h3v2h-11v-2l-4-2 3-3 10-2z" fill="#EEEEED"/>
<path transform="translate(851,653)" d="m0 0 5 1 3 3 6 2v2l6 1 5 5 2 4-2 1-14-7 2 5h5v2h-2l3 6-4-2-2 1-1-4-2-1h2l-4-6-2-1-1 4v-5h3v-2h2l-1-2-5-3z" fill="#3F3F40"/>
<path transform="translate(928,626)" d="m0 0 5 2 6 7-1 4-11 3-9-6 2-2 5-2 1-2h2v-2l-2-1z" fill="#949595"/>
<path transform="translate(868,611)" d="m0 0v3l-5 3 5 5 6-1 2-3h2l2 5-15 4-2 1h-6l-2-3 3-5 1-3-4-2 3-2 7-1z" fill="#878888"/>
<path transform="translate(1516,466)" d="m0 0 12 1 1 3-5 9-4 1-6-2-2-4 3-7z" fill="#939494"/>
<path transform="translate(874,545)" d="m0 0 10 1 5 7-14-2-13 5-5 3-3-1 7-8 8-4z" fill="#E5E5E4"/>
<path transform="translate(1062,691)" d="m0 0h4v3h2l-2 4-13 1-9 4-8-1v-1l8-1 2-6 7-2z" fill="#B7B7B7"/>
<path transform="translate(1355,595)" d="m0 0 6 1 3 3-2 2-10 2-11 6-15 4h-5l1-2 11-3v-2l7-2 5-3 10-2z" fill="#C0C0C0"/>
<path transform="translate(884,547)" d="m0 0 4 2 4 5 10 7 5 4v2l-4-2-11-7h-3l5 4-1 2-10-8-6-2-8 1-5 3-3-1 5-4 9-3 7 1 6 1z" fill="#616263"/>
<path transform="translate(87,774)" d="m0 0 12 1 6 3 2 4-10-1-6 4-9-2-2-1 2-4h3v-3z" fill="#AFAFAF"/>
<path transform="translate(242,786)" d="m0 0 5 1 3 3 10 3v-2l-2-1v-3l3 1 2 7v5l-13-4-3-1-6-1v-2l-7-4v-1h8z" fill="#C0C0C0"/>
<path transform="translate(1217,503)" d="m0 0 25 3v2l-9 4-11 7-4 5-3-1 5-7 5-5v-5l-8-1z" fill="#C0C0C0"/>
<path transform="translate(728,729)" d="m0 0 5 1-1 3-10 6h-9l-6-2v-3z" fill="#E7E7E6"/>
<path transform="translate(889,584)" d="m0 0h2l-2 4-5 5v4h2l-2 4-8 7-2 1 2-4 4-7h-6l-1-7z" fill="#A2A2A2"/>
<path transform="translate(1026,575)" d="m0 0 5 3 4 5 2 1-1 3-4 1-1 3h-10l-1-3 4-7z" fill="#9A9A9A"/>
<path transform="translate(420,727)" d="m0 0 12 1 3 2v5l-6 3h-7l-4-3 1-7z" fill="#616263"/>
<path transform="translate(1584,584)" d="m0 0h5l5 6v2l-8 4h-8l-4-2 6-7z" fill="#EDEDEC"/>
<path transform="translate(861,785)" d="m0 0h4v2l-4 1 1 5 5 3-1 2-12 2v2l-3 1-2-1-1 2 1-8 1-2 5-3 2-4z" fill="#1D1D1D"/>
<path transform="translate(1442,673)" d="m0 0h4v2l4 2v2l4 2-4 3-4 2-7-1-2 5-2-2-1-6 5-3h2v-5z" fill="#C1C1C0"/>
<path transform="translate(1044,585)" d="m0 0h5l2 4-1 4-4 6h-4v-2h-5l-1-6 3-4z" fill="#656667"/>
<path transform="translate(861,631)" d="m0 0h16l-3 5-2 2-1 4-3 4h-3l1-4 1-2-5-2-4-3v-3z" fill="#E4E4E3"/>
<path transform="translate(598,790)" d="m0 0 3 2h-3l2 4v3l4 2 4 6v3l-5 1v2h-9l-3-3 5-1-1-3 1-3 4-2-4-7z" fill="#939494"/>
<path transform="translate(803,636)" d="m0 0 2 3-2 4-6 8-2 1-1-2-6 10-2 5-1-3 7-17 6-7z" fill="#606162"/>
<path transform="translate(1495,625)" d="m0 0 3 4 1 4-3 5-4 2h-5l-4-3v-3h2v-2l8-4h2z" fill="#C0C0C0"/>
<path transform="translate(897,615)" d="m0 0 3 1-1 4-2 9v1h-6l-4-4v-2l6-2 1-2-9 3h-5v-2l8-3 1-2z" fill="#ACACAC"/>
<path transform="translate(800,817)" d="m0 0 4 1 10 7-2 2-10 1-2-1v-2l-8 1 6-7z" fill="#0D0D0C"/>
<path transform="translate(902,682)" d="m0 0 6 1v2h6l1 4 5 2 6 1 10 2-1 2-8 1-7-2-8-1-1-4-3-1-2-3-4-2z" fill="#646566"/>
<path transform="translate(849,563)" d="m0 0 2 2-1 2h2v2l4 1 6 5 6-1v2l-5 1-1 3h-2l-2 4-3-2 5-4v-2l-5-3-6 1v-3l-5 5-2-4 1-4h2l2-4z" fill="#1E1E1E"/>
<path transform="translate(771,704)" d="m0 0 10 2 11 6 2 3-4-1-12-6 1 3 4 7 2 11v11l-3 3v-14l-3-12-4-8-4-3z" fill="#141413"/>
<path transform="translate(770,667)" d="m0 0h4l3 8v3h2v3h-2l-2 5-4 5-1-4v-8h-2l1-3h2z" fill="#1A1A1A"/>
<path transform="translate(129,819)" d="m0 0 7 2 1 6-1 2-9 1-4-2-1-5 1-3z" fill="#5F6061"/>
<path transform="translate(790,682)" d="m0 0 7 1 4 4v2h-2l-1 2-2-1-1 3-5 2-3-1v2h-4l2-4 3-5z" fill="#939494"/>
<path transform="translate(849,570)" d="m0 0 1 2-1 2 3-2 5 1 4 3-2 4-5 4-2 3h-2l2-4 2-2 1-4h-8l-6 8-4 2-3-1 8-7z" fill="#5E5F60"/>
<path transform="translate(878,631)" d="m0 0h4l-2 6 3-4h2l2 4-1 5-10 5-1-3 2-4h-3l1-5z" fill="#E4E4E3"/>
<path transform="translate(803,566)" d="m0 0 1 2-6 8-1 2h-2v2l-6 4 5 1 2 2-6 1v-2l-7 2-4 1 3-4-5-1 1-2 16-6h2l2-4z" fill="#565758"/>
<path transform="translate(1168,574)" d="m0 0h6l10 2-3 5-2 2h-5v-2l-6 1-6 4 2-6z" fill="#C0C0C0"/>
<path transform="translate(960,650)" d="m0 0h3l2 2 3 1v3l-3 3v2h-5v2l-4-1v-2l-4-5v-2z" fill="#939494"/>
<path transform="translate(1181,808)" d="m0 0h16l2 6h-24v-4z" fill="#9FA0A0"/>
<path transform="translate(773,655)" d="m0 0h2l3 15 4 1-3 7h-2l-3-8v-3h-4l-1 4-3-1 3-10h2l1 3z" fill="#5F6061"/>
<path transform="translate(978,651)" d="m0 0 7 1 4 2v2h2v5l-1-2-5 2h-6l-6-2 1-2h2z" fill="#939494"/>
<path transform="translate(870,577)" d="m0 0 4 4v2l6-4-1 4 6-2-3 3-5 2h3l9-4h2v-2l4 2-2 3-7 1-11 5-4-1-2-11z" fill="#696A6A"/>
<path transform="translate(31,688)" d="m0 0 10 3 3 4-2 2h-7l-6 1-4-4h2l1-4z" fill="#C8C8C8"/>
<path transform="translate(596,620)" d="m0 0 4 1 11 14v3l-3 1-1-3-7-6-4-4-2-1-1 4-2-4z" fill="#515152"/>
<path transform="translate(788,590)" d="m0 0h2v2h9l-1 5 4 2-2 3h5l-1 2-11-1 1-5h-12l5-4-1-3z" fill="#212121"/>
<path transform="translate(913,811)" d="m0 0h7v6l-4 4-7 2-3-3 1-4 3-1v-2z" fill="#0C0C0B"/>
<path transform="translate(84,798)" d="m0 0h11l4 5v2l-10 1-6-1-3-3z" fill="#5F6061"/>
<path transform="translate(963,788)" d="m0 0 1 2h3l1 2 8 2-1 2h-3l-1 4-4-1-2-1-1 2v-2h-5l-1 3h-5l1-3h4l1-3 3-2z" fill="#B9B9B9"/>
<path transform="translate(1112,715)" d="m0 0 4 1-1 5-4 7-6-1-3-3h2l1-7z" fill="#AEAEAE"/>
<path transform="translate(841,562)" d="m0 0 5 1-1 5-5 3-3 4h-2l-2 5-8 9-4 1 4-5h2l1-4 4-4 1-3 3-3h2l1-3h2v-2l-7 5-2-2 5-4h2v-2z" fill="#959696"/>
<path transform="translate(172,54)" d="m0 0 7 1 2 3v7l-5 1-7-5v-5z" fill="#939494"/>
<path transform="translate(805,587)" d="m0 0 3 1-1 1-1 7h6l-4 4-3 2h-5l1-3-4-2 2-5z" fill="#5C5D5E"/>
<path transform="translate(1254,720)" d="m0 0 9 1 7 4-1 5h-9l-6-8z" fill="#aaa"/>
<path transform="translate(236,822)" d="m0 0h2l3 4 7 2 2 4-10-1-13-3 2-4z" fill="#939494"/>
<path transform="translate(1115,760)" d="m0 0 7 1 5 1 9-1 5 4v2l-5 2-7-1-8-5h-8v-2z" fill="#A9A9A9"/>
<path transform="translate(1215,549)" d="m0 0 5 1v2h8l5-3 5 1 6 1-1 3-5 1h-24l-3-2v-2z" fill="#C0C0C0"/>
<path transform="translate(861,566)" d="m0 0h12l13 1-1 3-4 1-10 1-5 1-5-6z" fill="#E4E4E3"/>
<path transform="translate(1051,628)" d="m0 0 4 1v2l4 1v3h-3l-2 5-2 2-8 1 1-5 5-4v-5z" fill="#B1B1B1"/>
<path transform="translate(972,693)" d="m0 0h6l-2 1 1 2 6-1-4 3-5 3h-2l-1-4-4 1-7 3-6-1-3 1h-7l3-2 11-2 9-2z" fill="#ADADAD"/>
<path transform="translate(450,799)" d="m0 0h6l10 5 19 9 2 3h-4l-5-3-13-6-15-6z" fill="#A0A1A1"/>
<path transform="translate(1055,644)" d="m0 0 2 1v2h6l4 1 5-2 5 2-4 3-12 3h-3v-2l-3-1z" fill="#969797"/>
<path transform="translate(777,637)" d="m0 0 3 3 4 8 1 14h-4l-1-5-1-1v-5l2-4h-4l1-5z" fill="#313232"/>
<path transform="translate(1410,704)" d="m0 0h2l5 5-4 5h-6l-5-2 2-5z" fill="#ACACAC"/>
<path transform="translate(1233,598)" d="m0 0h6l6 7 3 3-3 1-4-3-10-2-4-2 2-1v-2z" fill="#C0C0C0"/>
<path transform="translate(825,563)" d="m0 0 10 1-5 5-13 6 1-6h2l2-4z" fill="#E6E6E5"/>
<path transform="translate(1199,554)" d="m0 0 1 2-1 9-3 1-2 4-5 3 3-13 3-4z" fill="#C0C0C0"/>
<path transform="translate(556,767)" d="m0 0 4 2 1 3 10 5-4 2-11 1-2-1v-2h5l-4-7z" fill="#EEEEED"/>
<path transform="translate(896,663)" d="m0 0 7 1 8 3v1l-17 2v-2l-7-1 3-2z" fill="#DCDCDB"/>
<path transform="translate(883,573)" d="m0 0 1 2-2 4 5-2 4 1h4v2h-4v2l-8 4-5 2-3-1 3-3 3-1h-2l3-9z" fill="#BABAB9"/>
<path transform="translate(567,811)" d="m0 0 5 1 5 3-1 5-10-1-3-3v-3z" fill="#C5C5C4"/>
<path transform="translate(1255,607)" d="m0 0 5 3-1 5-4 1-8-3-1-5z" fill="#ABABAB"/>
<path transform="translate(849,756)" d="m0 0 2 1-2 3 5-1-1 3h7l4-1h7l-2 2-8 2h-12l-5-1 2-2v-4z" fill="#1B1B1B"/>
<path transform="translate(859,650)" d="m0 0 10 3 2 2 9 3 2 3-8-1-9-2-4-3v-3h-2z" fill="#6F7071"/>
<path transform="translate(867,541)" d="m0 0 2 1-1 2h12l2 2h-8l-10 3-6 5-5 5-1-4 8-7z" fill="#535454"/>
<path transform="translate(1011,781)" d="m0 0 1 2-5 5-8 5 1 3-2 3-6-4 6-7 7-3z" fill="#B0B0B0"/>
<path transform="translate(868,611)" d="m0 0v3l-5 3 1 2-4 1v2l2 1-3 1v2h6l-2 2h-6l-2-3 3-5 1-3-4-2 3-2 7-1z" fill="#5E5F60"/>
<path transform="translate(930,668)" d="m0 0 4 1 7 3 3 1v2l4 1-2 2h-9l-4-2h2l-1-2-4-2z" fill="#9E9F9F"/>
<path transform="translate(48,780)" d="m0 0 11 2 15 5 2 2-11-2-8-2h-16l4-1 1-3z" fill="#C0C0C0"/>
<path transform="translate(883,727)" d="m0 0 15 3h3l-1 5-12-1-5-2v-2l-2-1z" fill="#424343"/>
<path transform="translate(1516,661)" d="m0 0h4v9l-4 4-5 1-6 3-2-1 4-2 1-5 7-2z" fill="#C0C0C0"/>
<path transform="translate(844,656)" d="m0 0 4 1 1 3 3 1v14l-4-4-4-13z" fill="#8B8C8C"/>
<path transform="translate(1119,612)" d="m0 0 2 4v3l3 2-1 1h-5l-1 4h-3v2h-2l-2 5-5 3 2-4 7-10 2-4v-3h3z" fill="#AFAFAF"/>
<path transform="translate(1191,848)" d="m0 0h3l1 5 1 2-10 1-4-3-4-1v-2z" fill="#242425"/>
<path transform="translate(803,577)" d="m0 0h2l-1 4-3 8-2 2-9 1v-2l7-2 1-2-4-1 7-7z" fill="#AFB0B0"/>
<path transform="translate(870,559)" d="m0 0h6l6 7-13-1-6-1 3-3z" fill="#E7E7E7"/>
<path transform="translate(468,787)" d="m0 0 12 2 13 5 1 4-6-2-3-2-12-2-5-3z" fill="#C0C0C0"/>
<path transform="translate(696,736)" d="m0 0 2 1v2h3l-1 7h-2v2l-4-1-1-6-7-1v-2l8 1z" fill="#272727"/>
<path transform="translate(645,781)" d="m0 0h5l-2 1-1 5-3 2-10-2 2-4z" fill="#A7A7A7"/>
<path transform="translate(909,773)" d="m0 0 3 1v5l5 1v2h-7l1 2-4-2-7-5v-1h8z" fill="#CACACA"/>
<path transform="translate(1327,676)" d="m0 0 6 2 3 4-1 3-6 1-3-3-1-5z" fill="#C0C0C0"/>
<path transform="translate(665,760)" d="m0 0 3 1 2 4-9 7v2l-6 3-2-1 2-5 7-4h3z" fill="#B9B9B9"/>
<path transform="translate(1366,629)" d="m0 0h4v2h2l-1 6-4 1-6-2 1-4z" fill="#C0C0C0"/>
<path transform="translate(820,561)" d="m0 0h5l-4 4-14 9-2-1 4-6 8-5z" fill="#E5E6E5"/>
<path transform="translate(17,709)" d="m0 0 9 1 6 3 2 4-9-1-8-5z" fill="#BABABA"/>
<path transform="translate(810,636)" d="m0 0 7 2 6 5-1 3-5-2-4-1-3 6-1-4 2-4v-1l-5-1 1-2z" fill="#5C5D5D"/>
<path transform="translate(1400,190)" d="m0 0 5 1-1 4-4 3-7 1 1-6z" fill="#EEEEED"/>
<path transform="translate(758,744)" d="m0 0 4 1 5 15 4 11 1 4-3-3-4-8-6-17-2-2z" fill="#5F6061"/>
<path transform="translate(1186,667)" d="m0 0h10l3 4-12 1-2-1v2h-2v-2h-3l1-3z" fill="#BFBFBF"/>
<path transform="translate(1175,665)" d="m0 0 3 1 2 5h3v2h-11v-2l-4-2 3-3z" fill="#DBDBDB"/>
<path transform="translate(855,661)" d="m0 0 2 3-1 17h-3l-2-6 1-10z" fill="#6E6F70"/>
<path transform="translate(867,659)" d="m0 0h7l12 5v1l-9 1 2 3-4-2-4-3v-2l-4-1z" fill="#494A4A"/>
<path transform="translate(1117,486)" d="m0 0h1v6l-4 6h-6l2-9z" fill="#C0C0C0"/>
<path transform="translate(1545,581)" d="m0 0 7 2 2 5 2 1h-8l-5-3v-2l-4-1z" fill="#AEAEAE"/>
<path transform="translate(828,569)" d="m0 0 2 1-4 3-7 4-1 2h-2l-1 3-2-1-1 2-3 1 2-6 4-4h3z" fill="#2B2B2B"/>
<path transform="translate(102,833)" d="m0 0 5 2v2h2l1 3-5 2-7-3-3-4 2-1 6 1z" fill="#939494"/>
<path transform="translate(1053,769)" d="m0 0 7 2-2 4-1 4-2 3h-3v-4l-5-1v-1h6l-1-6z" fill="#C0C0C0"/>
<path transform="translate(641,675)" d="m0 0 4 2 2 2 5 2 5 6-3 4h-2l-2-4-2-1-3-5-4-4z" fill="#454546"/>
<path transform="translate(973,650)" d="m0 0 2 3-1 5-4 4-5-1-1-2 5-5z" fill="#EDEDEC"/>
<path transform="translate(1572,586)" d="m0 0h7v3l-3 3-6 1-5-2 1-3z" fill="#949494"/>
<path transform="translate(863,578)" d="m0 0 3 2 1 6-6 2h-6l2-4 5-5z" fill="#E8E8E7"/>
<path transform="translate(1230,509)" d="m0 0h5l-4 4-9 6-4 5-3-1 5-7z" fill="#EEEEED"/>
<path transform="translate(882,722)" d="m0 0h4v3l2 2-6 2 1 3-7-1-2-4z" fill="#232323"/>
<path transform="translate(864,649)" d="m0 0 9 2 13 5v1h-11l-5-2-6-5z" fill="#1D1D1D"/>
<path transform="translate(31,782)" d="m0 0 9 3 6 3-2 3-6-1-5-3-2-2z" fill="#5F6061"/>
<path transform="translate(1128,708)" d="m0 0 4 2 1 3h5l-3 2h-13l-3-4 2-2h5l-1 4 4-1z" fill="#919292"/>
<path transform="translate(1254,664)" d="m0 0 7 3 1 3-6 2-5 2-2-5z" fill="#C0C0C0"/>
<path transform="translate(1501,530)" d="m0 0h5l-5 5-5 3h-3v2l-10 4h-5l1-2 5-1 7-5 8-3z" fill="#C0C0C0"/>
<path transform="translate(780,677)" d="m0 0h3l6 2-2 3-7 3h-3l-2 5-2 1 1-5 3-5h2z" fill="#8E8F8F"/>
<path transform="translate(1094,611)" d="m0 0h7l6 5-1 3-7-4h-13l-4 1 1-3z" fill="#939494"/>
<path transform="translate(1154,725)" d="m0 0 2 2-1 5-2 2h-4l1 5-3 3-5-1-4-2-1-2-5 2 2-4 4-1 5 5h4l1-6 5-2z" fill="#C0C0C0"/>
<path transform="translate(1121,700)" d="m0 0h6l3 4-5 4-3-2-6-1v-2z" fill="#EEEEED"/>
<path transform="translate(815,569)" d="m0 0 1 2-7 13-4 1v-2h2l-1-5 7-8z" fill="#D3D3D2"/>
<path transform="translate(1280,562)" d="m0 0 5 1 1 6-3 2-5-1v-3h-2l2-4z" fill="#373838"/>
<path transform="translate(859,662)" d="m0 0 4 2 1 6h5v2h-2l3 6-4-2-2 1-1-4-2-1h2l-4-6-2-1-1 4v-5h3z" fill="#868787"/>
<path transform="translate(327,806)" d="m0 0h1l2 6 15 10 2 3-5-2-15-9-2-2 1-5z" fill="#D3D3D2"/>
<path transform="translate(793,721)" d="m0 0 4 4 2 4-1 8h-2l-4-8z" fill="#171717"/>
<path transform="translate(950,676)" d="m0 0 6 2v2l6-2h6l-1 2-12 4-8-2 4-3z" fill="#9FA0A0"/>
<path transform="translate(851,576)" d="m0 0 4 1-1 5-3 3-1 4-4 1 2-5-1-3 1-5z" fill="#4E4F50"/>
<path transform="translate(275,774)" d="m0 0h10l1 4-6 2-9-1 3-2z" fill="#aaa"/>
<path transform="translate(1470,693)" d="m0 0 7 1 4 2-3 3-6 1-4-3z" fill="#EEEEED"/>
<path transform="translate(1026,575)" d="m0 0 5 3 4 5 2 1-1 3-4 1v-3-2h-7l-2 1z" fill="#B1B1B1"/>
<path transform="translate(1154,596)" d="m0 0 1 4-3 6-4 3-3-2 2-5z" fill="#ADADAD"/>
<path transform="translate(1214,523)" d="m0 0 4 1-2 7-4 10-3 1 1-7 2-6z" fill="#C0C0C0"/>
<path transform="translate(871,613)" d="m0 0 2 1v1l1 2-1 2h2l-1 3-6 1-3-5z" fill="#5F6061"/>
<path transform="translate(1036,788)" d="m0 0 5 1-3 2h-3v2l-7 3-2 4h-2v2h-3l-2 2 1-4 4-1 1-4 3-3z" fill="#C0C0C0"/>
<path transform="translate(636,776)" d="m0 0 4 1v2l9-1v2l2 1-16 2z" fill="#B6B6B6"/>
<path transform="translate(946,652)" d="m0 0 6 1 1 4 3 1 2 4h-3l-4-4v-2l-7 2-5 1 2-4h4z" fill="#B3B4B3"/>
<path transform="translate(901,586)" d="m0 0 4 2-2 4-6 5-1-2-2-1 4-7z" fill="#ABABAB"/>
<path transform="translate(816,852)" d="m0 0 4 2 2 5-1 4h-3l-4-5 1-5z" fill="#E4E4E3"/>
<path transform="translate(761,696)" d="m0 0 4 1 5 5 1 2-11 2-5-5 11 2v-2l-4-2z" fill="#111"/>
<path transform="translate(1062,691)" d="m0 0h4v3h2l-2 4-10-1 1-2-3-2 7-1z" fill="#B0B0B0"/>
<path transform="translate(747,595)" d="m0 0h1l-1 7-3 11-2-2v-5l-2-1 1-3 4-4z" fill="#8D8E8E"/>
<path transform="translate(891,585)" d="m0 0v3l-3 3v7l-7 8-2-2 6-5 1-2h-2l-1-5z" fill="#313232"/>
<path transform="translate(933,840)" d="m0 0 4 1 1 1v6l-4 2-3-3v-5z" fill="#E7E7E6"/>
<path transform="translate(216,781)" d="m0 0 7 1 16 8 5 2-4 1-3-1v-2l-8-1-1-3-9-2z" fill="#EEEEED"/>
<path transform="translate(1044,585)" d="m0 0h2v2h-2l-1 5-3 3 1 2h-4l-1-6 3-4z" fill="#8D8E8E"/>
<path transform="translate(875,554)" d="m0 0h2v3l6 2-3 1h-10l-6 1 1-3z" fill="#525353"/>
<path transform="translate(909,781)" d="m0 0h12l-2 7-4 1-5-5z" fill="#B3B3B3"/>
<path transform="translate(1143,688)" d="m0 0h14l-1 2-14 3-1 4-1-6z" fill="#939494"/>
<path transform="translate(1265,608)" d="m0 0h3l-1 4-3 2-3 5-3 1-2-1 2-4 5-6z" fill="#EEEEED"/>
<path transform="translate(1599,580)" d="m0 0h1v9l-4 1-5-2-1-3 6-2z" fill="#949595"/>
<path transform="translate(1107,720)" d="m0 0h7l-1 5-2 3-6-1 1-6z" fill="#9D9E9E"/>
<path transform="translate(38,792)" d="m0 0h7l3 1 1 7-5-1-3-3-3-2z" fill="#BFBFBF"/>
<path transform="translate(995,683)" d="m0 0 4 2-1 5-3 2-4-1 1-6z" fill="#616263"/>
<path transform="translate(154,732)" d="m0 0h7l-2 4-2 3-6 3v-5z" fill="#C0C0C0"/>
<path transform="translate(862,660)" d="m0 0 9 2 5 5 2 3-5-1-10-7z" fill="#D9D9D9"/>
<path transform="translate(297,784)" d="m0 0 6 1 6 3-1 3-8-1-3-3z" fill="#E7E7E6"/>
<path transform="translate(0,658)" d="m0 0 11 2 2 2-5 2-8-1z" fill="#EEEEED"/>
<path transform="translate(1357,622)" d="m0 0 6 2v4l-2 1h-6l-1-3z" fill="#4B4C4C"/>
<path transform="translate(738,608)" d="m0 0h1l1 5h3l-1 8 1 4-2 1v-3l-6 2 5-7v-2l-3-1z" fill="#78797A"/>
<path transform="translate(887,556)" d="m0 0 7 2 3 3-1 1 5 3 1 4-4-2-4-1-2-5z" fill="#A2A2A2"/>
<path transform="translate(1182,518)" d="m0 0 7 1 2 1v7l-1 2-3-1v-5l-5-3z" fill="#EEEEED"/>
<path transform="translate(938,809)" d="m0 0 1 4h2v2l-6 3-3 2-3-1 6-8z" fill="#0E0E0D"/>
<path transform="translate(972,693)" d="m0 0h6l-2 1 1 2 6-1-4 3-5 3h-2l-1-4v-1h-2v-2z" fill="#ABABAB"/>
<path transform="translate(610,640)" d="m0 0 3 1 9 11 7 8-3 1-9-11-7-8z" fill="#6F7071"/>
<path transform="translate(887,599)" d="m0 0 3 1-2 5-4 3-6 2 2-4z" fill="#EDEDEC"/>
<path transform="translate(116,790)" d="m0 0 12 2 7 4 5 4-4-1-14-5-6-2z" fill="#C0C0C0"/>
<path transform="translate(0,788)" d="m0 0 9 3 8 5-2 1-10-3-5-2z" fill="#ABABAB"/>
<path transform="translate(1494,681)" d="m0 0 4 1 1 4-7 3h-2l1-6z" fill="#EEEEED"/>
<path transform="translate(767,583)" d="m0 0 3 1-9 5-1 4-6 3 1-5 7-6z" fill="#565757"/>
<path transform="translate(1115,835)" d="m0 0h5l-4 4-7 2h-4v-3l3-2h6z" fill="#1B1B1B"/>
<path transform="translate(764,684)" d="m0 0 1 2h2v6h-10l-1-3 7-1z" fill="#272727"/>
<path transform="translate(849,611)" d="m0 0h5v2l-3 1-1 2h10l-2 2-16-1v-2h5l-1-3z" fill="#3C3C3C"/>
<path transform="translate(1386,539)" d="m0 0 7 1 2 4-2 1h-6l-2-5z" fill="#EEEEED"/>
<path transform="translate(1040,800)" d="m0 0h9l-1 3-5 2-3 2h-5z" fill="#9A9B9B"/>
<path transform="translate(93,779)" d="m0 0h5l-5 5-5 1-4-3z" fill="#5F6061"/>
<path transform="translate(887,774)" d="m0 0h4l1 6-8 1 1-5z" fill="#9E9E9E"/>
<path transform="translate(502,770)" d="m0 0h6l3 3-4 1-1 3-5-3-1-3z" fill="#7F8081"/>
<path transform="translate(889,616)" d="m0 0h8l-1 2h-2v2l-9 3h-5v-2l8-3z" fill="#C5C5C5"/>
<path transform="translate(1058,596)" d="m0 0 2 1-2 6-2-1v-2l-3 1-1 2-6-2 5-4 5 1z" fill="#C0C0C0"/>
<path transform="translate(805,579)" d="m0 0 2 4h-2v2l4 1-1 2-5 1-3 3h-7v-1l7-2 4-9z" fill="#5B5C5D"/>
<path transform="translate(1188,808)" d="m0 0h9l2 6-4-2-8-2-1 3h-4l1-3z" fill="#818282"/>
<path transform="translate(998,668)" d="m0 0 5 1-4 3-13 6 1-3h2v-2z" fill="#AFAFAF"/>
<path transform="translate(1218,654)" d="m0 0 9 2v2h-10v2h-4l1-4z" fill="#EEEEED"/>
<path transform="translate(972,805)" d="m0 0 6 1 2 4h-8l-4 2v-4h3z" fill="#9FA0A0"/>
<path transform="translate(1036,796)" d="m0 0 6 1-5 5-6 2 3-7z" fill="#939494"/>
<path transform="translate(693,770)" d="m0 0h6v2l5 2 10 6-2 1-16-8z" fill="#212121"/>
<path transform="translate(1133,725)" d="m0 0 5 1-1 5-4 1-4-2v-2z" fill="#A7A8A8"/>
<path transform="translate(1053,692)" d="m0 0h8l-4 2 1 2 3 2-12 1z" fill="#BFBFBF"/>
<path transform="translate(1164,644)" d="m0 0h5l1 3-6 3-5-1v-3z" fill="#ABABAB"/>
<path transform="translate(1572,608)" d="m0 0 2 1v3l-5 3-2 2-9-5 1-3 4 3h5z" fill="#C0C0C0"/>
<path transform="translate(805,587)" d="m0 0 3 1-4 8-5-1 1-4z" fill="#DADAD9"/>
<path transform="translate(875,570)" d="m0 0h6v1l-11 3-1 7-3 2-3-6 5-1 1-4z" fill="#636465"/>
<path transform="translate(830,569)" d="m0 0v3l-12 10-1-3 5-5z" fill="#D7D7D7"/>
<path transform="translate(926,552)" d="m0 0h2l-1 4-6 10h-3l6-12h2z" fill="#C0C0C0"/>
<path transform="translate(0,771)" d="m0 0 12 2 10 4-3 1-19-5z" fill="#C0C0C0"/>
<path transform="translate(150,753)" d="m0 0 1 2h2l2 5h-3l-2-1v-2h-7l-4-2z" fill="#C0C0C0"/>
<path transform="translate(753,746)" d="m0 0h4v3l-7 3-7-1 4-3z" fill="#D8D8D7"/>
<path transform="translate(1454,659)" d="m0 0 3 2-2 4-3 3h-5l3-1-1-3z" fill="#C0C0C0"/>
<path transform="translate(777,589)" d="m0 0h2l-2 4-8 5h-5l4-4z" fill="#5F6061"/>
<path transform="translate(300,780)" d="m0 0 5 2 3 2 5 2 1 2-5 1-6-3z" fill="#BFBFBF"/>
<path transform="translate(1267,724)" d="m0 0 3 1-1 5h-9l-2-2 1-3 1 3 7-2z" fill="#939494"/>
<path transform="translate(892,679)" d="m0 0 5 1 3 1 1 4-3 1-6-4-4-2z" fill="#3F3F40"/>
<path transform="translate(735,751)" d="m0 0 6 1 4 3h-15l1-3z" fill="#D0D0D0"/>
<path transform="translate(926,692)" d="m0 0 10 2-1 2-8 1-5-1v-3z" fill="#656667"/>
<path transform="translate(929,653)" d="m0 0 2 1-13 8h-4v-2l5-1v-2z" fill="#CFCFCF"/>
<path transform="translate(878,631)" d="m0 0h4l-2 5-1 3-5 1 1-5z" fill="#DBDBDA"/>
<path transform="translate(581,866)" d="m0 0h6l4 4-1 1h-7l-2-2z" fill="#DADAD9"/>
<path transform="translate(1047,668)" d="m0 0 2 1-3 2zm-7 3 5 1-2 5-1 2-5-3 1-4z" fill="#BABABA"/>
<path transform="translate(856,652)" d="m0 0 5 2 6 4v3h-2v-2l-7-1-2-3z" fill="#1A1A1A"/>
<path transform="translate(943,652)" d="m0 0 3 1-1 2-4 1v3l-4 3-4 2h-3v-2l6-2 5-7z" fill="#949595"/>
<path transform="translate(892,555)" d="m0 0 5 2 10 8v2l-4-2-11-7z" fill="#636464"/>
<path transform="translate(697,740)" d="m0 0 3 1v5h-2v2l-4-1v-6z" fill="#121211"/>
<path transform="translate(804,728)" d="m0 0h2l7 10 2 7-4-4-7-12z" fill="#5D5E5F"/>
<path transform="translate(420,727)" d="m0 0 12 1 2 2-1 2-6-2h-6l-2 5-1-4z" fill="#9FA0A0"/>
<path transform="translate(869,655)" d="m0 0 9 2 4 4-8-1-5-2z" fill="#E3E3E2"/>
<path transform="translate(833,574)" d="m0 0 2 3-9 11-5 2 4-5h2l1-4 4-4z" fill="#676869"/>
<path transform="translate(857,574)" d="m0 0 4 2-2 4-5 4-2 3h-2l2-4 4-6z" fill="#D7D7D6"/>
<path transform="translate(1544,490)" d="m0 0 3 3 1 3 4 3-6 1-4-6z" fill="#C0C0C0"/>
<path transform="translate(1040,816)" d="m0 0 4 2-2 3-10 3 1-4 6-3z" fill="#989999"/>
<path transform="translate(938,778)" d="m0 0 2 1-6 7-3 1-5-1-1-3h6l6-4z" fill="#D8D8D7"/>
<path transform="translate(571,777)" d="m0 0 2 1v2l-3 2-12-1 4-2z" fill="#C0C0C0"/>
<path transform="translate(1125,764)" d="m0 0 16 2-3 3-9-1z" fill="#939494"/>
<path transform="translate(1107,759)" d="m0 0h11l-3 2h-2v2h-7l-2-3z" fill="#C7C7C7"/>
<path transform="translate(1139,697)" d="m0 0 2 1-4 3-5 1-1 2-1-2-3-1v-2l7-1z" fill="#939494"/>
<path transform="translate(846,665)" d="m0 0h6v10l-4-4z" fill="#E2E2E1"/>
<path transform="translate(1131,618)" d="m0 0 4 2-1 2h-2v2h2l-1 2h-2v-2l-8 2 2-4 5-1z" fill="#B6B6B6"/>
<path transform="translate(868,611)" d="m0 0v3l-8 4v-2h-5l3-3 7-1z" fill="#787979"/>
<path transform="translate(1594,596)" d="m0 0 6 2v5l-5-1-2-2z" fill="#EEEEED"/>
<path transform="translate(1022,586)" d="m0 0h8l-1 5h-7z" fill="#5F6061"/>
<path transform="translate(1193,721)" d="m0 0 6 1 2 4-4 2-4-2v-3z" fill="#939494"/>
<path transform="translate(673,709)" d="m0 0 4 2 5 6-3 1-6-4z" fill="#1D1D1D"/>
<path transform="translate(950,702)" d="m0 0 7 1 4 1 4 2-22-1 4-2z" fill="#ADADAD"/>
<path transform="translate(819,831)" d="m0 0 5 1 6 3v1h-8l-5-2z" fill="#1D1D1D"/>
<path transform="translate(459,792)" d="m0 0h6l7 3 6 2 1 4h-2v-3l-11-2-6-3-1 2z" fill="#939494"/>
<path transform="translate(856,789)" d="m0 0h2l2 6-1 1h-7l2-4z" fill="#5F6061"/>
<path transform="translate(1115,663)" d="m0 0h7l-10 5-3 5 2 1-4-1 1-5h2v-2z" fill="#C0C0C0"/>
<path transform="translate(955,641)" d="m0 0h7l-2 6-4 2z" fill="#939494"/>
<path transform="translate(1142,611)" d="m0 0 1 2h-2l1 3-2 5-2-2-6 1 5-5z" fill="#D9D9D8"/>
<path transform="translate(883,566)" d="m0 0 12 2 1-2 3 6v2l-3-1-3-3h-8l1-3z" fill="#5F6061"/>
<path transform="translate(100,797)" d="m0 0 7 4 2 3-2 1-7-2z" fill="#C0C0C0"/>
<path transform="translate(894,619)" d="m0 0 2 1-4 4h-6l-1 2v-2l-4-1z" fill="#535455"/>
<path transform="translate(872,551)" d="m0 0h6l-1 2-10 3-3 2-3-1 5-4z" fill="#414142"/>
<path transform="translate(472,808)" d="m0 0 9 3 6 4-1 2-4-2-9-5z" fill="#BABABA"/>
<path transform="translate(1479,766)" d="m0 0 6 1-2 4h-6v-3z" fill="#939494"/>
<path transform="translate(620,724)" d="m0 0h3l1 7-6-1z" fill="#8A8A8B"/>
<path transform="translate(1128,701)" d="m0 0 3 1-1 5v3l-1 3h-4l2-7 2-3z" fill="#ADADAD"/>
<path transform="translate(96,690)" d="m0 0 5 2v4h-6v-5z" fill="#5F6061"/>
<path transform="translate(805,640)" d="m0 0 5 1-1 5-3 1-2-2z" fill="#909191"/>
<path transform="translate(763,596)" d="m0 0 5 2-4 3-7 1v-3z" fill="#1D1D1D"/>
<path transform="translate(867,580)" d="m0 0 3 1 2 9v2h-5l1-5z" fill="#202020"/>
<path transform="translate(468,772)" d="m0 0h9l2 3h-21v-2z" fill="#ABABAB"/>
<path transform="translate(1519,757)" d="m0 0h5l2 2 8 1-4 2-5 1-3-4-4-1z" fill="#939494"/>
<path transform="translate(1593,589)" d="m0 0h7v7l-5-1v-5z" fill="#ABABAB"/>
<path transform="translate(870,577)" d="m0 0 4 4 1 5-1 3h-2l-3-10z" fill="#A6A6A7"/>
<path transform="translate(879,579)" d="m0 0 1 2-1 2 6-2-3 3-5 2-3 3v-6z" fill="#808081"/>
<path transform="translate(852,572)" d="m0 0 5 1-1 6-1-2h-6l2-4z" fill="#7C7C7D"/>
<path transform="translate(919,789)" d="m0 0 9 1 2 2-2 2-4-1h-3z" fill="#ACACAC"/>
<path transform="translate(86,778)" d="m0 0h12v1l-13 3-3 1 1-3z" fill="#939494"/>
<path transform="translate(844,769)" d="m0 0 11 1v3h-8l-4-3z" fill="#303030"/>
<path transform="translate(503,753)" d="m0 0h5l-1 4h-8l-1-2z" fill="#9C9C9D"/>
<path transform="translate(762,744)" d="m0 0 4 2 1 8-2 3-3-10z" fill="#1D1D1D"/>
<path transform="translate(913,686)" d="m0 0h2v3l5 2 2 1v2l2 1h-4v-2l-4-1v-2l-6-1z" fill="#262626"/>
<path transform="translate(665,678)" d="m0 0 3 1-8 8-3-2z" fill="#4C4D4E"/>
<path transform="translate(741,652)" d="m0 0 6 4 5 4 4 4-5-2-8-6z" fill="#4C4D4D"/>
<path transform="translate(871,654)" d="m0 0 13 1 2 2h-11l-4-1z" fill="#1E1E1E"/>
<path transform="translate(161,632)" d="m0 0h3v2l4 1v4l-5-2-2-2z" fill="#2E2E2E"/>
<path transform="translate(889,584)" d="m0 0h2l-2 4-4 3-3-1v-3z" fill="#DADAD9"/>
<path transform="translate(962,798)" d="m0 0h5l3 2v4h-3l-2-2h-3z" fill="#A3A3A3"/>
<path transform="translate(287,776)" d="m0 0h6l7 3 3 4v2l-4-2-3-3-9-3z" fill="#ACACAC"/>
<path transform="translate(860,769)" d="m0 0 3 1v2l-2 2h5l-3 2h-6v-3z" fill="#1D1D1D"/>
<path transform="translate(1063,759)" d="m0 0h6l-2 5-3-1-5 1-1-2z" fill="#BEBEBE"/>
<path transform="translate(884,597)" d="m0 0h2l-2 4-8 7-2 1 2-4 4-5z" fill="#D8D8D8"/>
<path transform="translate(865,574)" d="m0 0h3v2l-5 1-1 3h-2l-2 4-3-2 5-4 1-2z" fill="#353535"/>
<path transform="translate(1356,448)" d="m0 0 3 1-2 5-4 1v-6z" fill="#191A19"/>
<path transform="translate(0,861)" d="m0 0h15l-3 1-1 2-11-1z" fill="#A0A0A0"/>
<path transform="translate(1111,735)" d="m0 0h7l5 1 4 1v2h-8l-5-2-3-1z" fill="#C0C0C0"/>
<path transform="translate(1141,715)" d="m0 0 7 1 4 2-1 4-1-3h-8z" fill="#B2B2B2"/>
<path transform="translate(930,668)" d="m0 0 4 1 5 3v2l-9-1v-3z" fill="#AEAEAE"/>
<path transform="translate(882,658)" d="m0 0 8 1 4 3h-9z" fill="#E3E3E3"/>
<path transform="translate(1e3 654)" d="m0 0h5l-1 2-11 3-2-1 3-3z" fill="#C9C9C9"/>
<path transform="translate(1e3 605)" d="m0 0 3 1-6 12-2-1 3-6z" fill="#6D6E6F"/>
<path transform="translate(756,605)" d="m0 0h2l-2 5-4 2h-3l2-4z" fill="#5F6061"/>
<path transform="translate(1057,822)" d="m0 0 2 1-4 4-2 4h-3l2-5 3-3z" fill="#9D9D9D"/>
<path transform="translate(462,804)" d="m0 0 7 1 4 3v2l-7-2z" fill="#A4A4A4"/>
<path transform="translate(1e3 770)" d="m0 0 5 2 1 3h-8z" fill="#696A6A"/>
<path transform="translate(793,678)" d="m0 0h5l4 1 1 4-10-2h-2v-2z" fill="#939494"/>
<path transform="translate(629,662)" d="m0 0 4 2 7 8 1 2-4-1-7-8z" fill="#78797A"/>
<path transform="translate(867,618)" d="m0 0 5 1 3 2-4 2-4-1z" fill="#131312"/>
<path transform="translate(803,577)" d="m0 0h2l-1 4-5 3h-2l2-4z" fill="#E6E6E5"/>
<path transform="translate(140,835)" d="m0 0 4 1 6 7-5-1z" fill="#A2A2A2"/>
<path transform="translate(1e3 819)" d="m0 0h7l1 3-3 2h-3z" fill="#C7C7C7"/>
<path transform="translate(870,813)" d="m0 0 3 1-1 4-3 2h-3l2-4z" fill="#A5A6A6"/>
<path transform="translate(999,798)" d="m0 0 8 1 4 1-1 3-9-3z" fill="#A1A1A1"/>
<path transform="translate(989,788)" d="m0 0h2l-1 5-7-1-5-1-2-2h7l6 1z" fill="#AEAEAE"/>
<path transform="translate(823,733)" d="m0 0v3l-4 5h-3l-1-3 5-3z" fill="#1D1D1D"/>
<path transform="translate(804,730)" d="m0 0 4 4 5 9h-3l-6-10z" fill="#121211"/>
<path transform="translate(783,731)" d="m0 0h2v9l-3 3v-7z" fill="#0F0F0E"/>
<path transform="translate(755,701)" d="m0 0 11 2 1-2v2l2 1-9 2z" fill="#1D1D1D"/>
<path transform="translate(962,678)" d="m0 0h6l-1 2-9 3h-3v-2z" fill="#B1B2B1"/>
<path transform="translate(874,661)" d="m0 0 7 1 5 2v1l-10-1-4-2z" fill="#0F0F0F"/>
<path transform="translate(813,642)" d="m0 0 6 2 3 2-1 2-3-2-3 1-4-3z" fill="#A8A8A8"/>
<path transform="translate(746,635)" d="m0 0h2l2 4v4l-4-2-1-5z" fill="#BEBEBD"/>
<path transform="translate(1249,611)" d="m0 0 9 1v4l-6-1-3-2z" fill="#909191"/>
<path transform="translate(800,576)" d="m0 0h3v2l-8 7h-2l2-4h2l1-4z" fill="#3E3F3F"/>
<path transform="translate(872,553)" d="m0 0h5l-4 3-10 3 4-4z" fill="#E1E1E0"/>
<path transform="translate(89,822)" d="m0 0 2 2-3 6 2 1-6-1 4-7z" fill="#919292"/>
<path transform="translate(528,748)" d="m0 0h7v3l-6 1-2-3z" fill="#4E4F4F"/>
<path transform="translate(155,741)" d="m0 0h3l-1 4-2 1-2 3v-2h-2l2-5z" fill="#5F6061"/>
<path transform="translate(1136,734)" d="m0 0 4 2 4 5-6-2-1-2-5 2 2-4z" fill="#BEBEBE"/>
<path transform="translate(904,685)" d="m0 0 5 2v2l2 1v2l3 1h-5l-6-6z" fill="#323232"/>
<path transform="translate(902,682)" d="m0 0 6 1v2h6l-1 2h-6l-5-3z" fill="#616262"/>
<path transform="translate(17,663)" d="m0 0h11l1 3-10-1z" fill="#EEEEED"/>
<path transform="translate(797,659)" d="m0 0h5l-4 3-9 3 5-5z" fill="#4F5051"/>
<path transform="translate(851,653)" d="m0 0 5 1 3 3 6 2-4 2-6-4z" fill="#676869"/>
<path transform="translate(1413,646)" d="m0 0h3v5l-4 1-1-5z" fill="#939494"/>
<path transform="translate(856,610)" d="m0 0 2 2-1 3-7 1 1-3h3v-2z" fill="#0E0E0D"/>
<path transform="translate(887,594)" d="m0 0 1 4-7 8-2-2 6-5 1-4z" fill="#747475"/>
<path transform="translate(811,570)" d="m0 0 2 1-7 8-1-2-2-1 1-2z" fill="#545556"/>
<path transform="translate(858,550)" d="m0 0 2 2-5 6-3 1v-4z" fill="#3C3D3D"/>
<path transform="translate(1478,452)" d="m0 0 5 1-1 2-9 3 2-4z" fill="#EEEEED"/>
</svg>
